<svg xmlns="http://www.w3.org/2000/svg" version="1.0" viewBox="0 0 11920 4370">
  <defs/>
  <g >
    <path d="M9831 4154c-34-29-40-63-15-89 13-12 27-14 61-9 45 7 45 6 101-52 98-105 129-200 138-433 2-67 6-127 9-131 7-11-37-225-84-415-23-88-46-197-53-242l-12-81-27 21c-15 12-28 28-28 35-1 6-5 12-11 12s-10 95-10 264v264l37-10c30-8 38-7 45 6 11 20 28 11 28-15 0-10 5-19 10-19 6 0 10 4 10 9s3 16 6 25c4 11-5 18-34 26-30 8-58 29-111 86-39 42-71 80-71 85 0 23-29 3-92-62l-69-70 23-37 23-37 6-595c6-529 8-601 24-650 10-30 17-76 16-102-1-36 3-48 14-48 8 0 15 7 15 15 0 20 29 8 113-49 38-25 79-49 92-52 25-6 45-47 45-91 0-39 25-21 26 18 2 51 14 85 35 105 26 23 23 45-7 69-70 54-114 95-104 95 6 0 8 5 5 10-3 6-14 10-25 10-19 0-36 26-20 32 5 2 3 20-3 41-7 23-17 35-24 32-9-3-13 6-13 26 0 18 4 28 10 24s10 5 10 20-4 24-10 20-10 43-10 134c0 79 4 141 9 141 13 0 83-81 125-144 82-121 106-136 140-84 14 21 14 29 1 72-27 90-16 372 20 501 8 28 21 122 29 210l27 248c30 222-35 523-149 695-53 80-146 177-162 167-4-2-16 2-26 10-28 21-49 18-83-11zm376-639c0-15-26-30-35-20-4 4 22 30 34 35l1-15zm-255-830c28-32 21-40-14-13-17 13-35 35-40 48l-9 24 23-20c12-10 30-28 40-39zm-7-85c4-6 11-8 16-5 5 4 9-8 9-26v-32l-32 25c-18 14-34 30-36 36-5 15 34 16 43 2zm48-658c24-20 32-32 22-32-22 0-95 61-95 79 0 15-4 18 73-47zM5522 4154c-28-19-28-34-1-63 16-17 29-22 50-17 24 5 35-1 69-35 66-67 86-154 94-417l7-214-22 4c-24 3-57 50-58 81-1 11-7 17-13 14-7-2-12-9-11-15 2-6-4-9-12-6-8 4-15 11-15 16 0 15-52-1-73-22-10-12-24-17-33-13-12 4-15 2-12-8 5-14-11-26-69-54-33-15-49-32-39-42 7-7 97 37 164 81 29 20 50 31 47 26a816 816 0 00-170-111c-18-4-65-62-65-80 0-15 48-10 54 6 9 25 25 17 30-17 3-18 7-183 9-366l4-333-25-20c-21-16-26-29-27-70-1-40 2-49 14-46 9 1 15 10 15 20-2 15 2 14 30-5 82-58 206-198 175-198-16 0-69-43-69-56 0-20 27-24 82-11 45 10 65 23 133 88 77 73 129 109 158 109 8 0 19 11 25 24 9 20 8 25-9 29-10 3-19 13-19 22 0 14 4 14 27-5 39-31 43-5 5 28l-31 27-10 395c-6 217-11 463-11 545 1 178-19 336-55 431-69 184-172 294-275 294-25 0-56-7-68-16zm207-842c12-23 12-23-14-6-19 12-23 19-13 25 7 4 13 7 14 6l13-25zm-24-68c21-5 24-12 27-77 2-40 3-73 2-75 0-1-20 17-42 40-37 36-42 48-42 86 0 36 3 43 16 38l39-12zm27-197c8-15 7-17-5-10-36 21-77 63-77 79 0 14 8 10 36-17 20-18 40-42 46-52zm-47-57c42 0 45-15 46-259 1-186-1-235-12-246-12-12-17-11-36 3-20 16-21 26-27 272-3 140-3 249 0 243 3-7 16-13 29-13zm3-536c2-1-1-5-7-8-5-4-15 4-22 16-12 22-11 22 7 8l22-16zM2917 4102c-33-34-35-66-5-86 27-19 52-20 78-4 26 17 59-2 135-77 65-64 119-150 140-224 16-55 33-198 36-301 2-67 0-75-17-78-11-1-40 16-71 43-36 32-60 45-75 43-33-5-32-27 3-83 23-35 32-60 30-83-4-47 8-92 25-92 8 0 14 5 14 11s11 24 24 40c19 23 25 25 30 13 9-24 7-63-5-86-14-25-3-68 16-68 40 0 1-130-57-192-38-42-39-45-32-93 4-27 7-65 7-82 1-36 16-42 42-17 9 10 15 29 13 46s3 32 12 38c11 7 17-1 28-38 15-53 24-148 16-174-3-10-11-15-20-11-8 3-14-1-14-11 0-9 3-15 8-15 28 5 34-3 29-33-10-63-25-88-51-88-13 0-34-8-46-18-20-16-21-19-6-31 9-7 16-18 16-23s11-24 24-41c13-18 31-49 41-69 9-21 23-38 30-38s41 23 76 51c115 92 105 91 217 7 53-40 99-76 100-80 6-14 29-8 47 12 16 18 17 25 6 61-9 30-10 54-2 87 16 78 69 292 92 372 42 151 35 338-17 480-20 52-47 98-95 157-38 47-71 93-74 104-9 29-31 23-78-20-59-54-85-67-94-46-12 32 4 199 23 239l19 38-85 78c-47 42-129 132-184 198-54 66-118 134-142 151-94 68-163 79-207 33zm425-394c-9-9-15-9-24 0s-7 12 12 12 21-3 12-12zm386-553c10-26 15-78 16-150 1-125-5-147-89-340-28-66-58-141-65-168-16-59-25-65-39-27-5 17-17 30-25 30-10 0-16 9-16 23l-6 344-6 322 53 16c30 9 70 24 89 34l35 19 19-31c10-18 25-50 34-72zm-445-251c-10-14-30-47-45-72-24-41-28-44-28-21 0 15 12 36 29 53 16 16 35 42 42 59s15 25 17 18c2-6-4-23-15-37zm276-500c3-17 0-16-23 5-14 14-26 29-26 34 0 17 45-20 49-39z"/>
    <path d="M3583 3143c-9-3-13-32-13-94v-89h26c20 0 25 4 20 16-3 9-6 51-6 95 0 77-2 83-27 72zM3570 2915c0-28 4-35 19-35 14 0 20 9 23 35 4 31 1 35-19 35s-23-5-23-35zM3570 2777c0-66 3-88 13-85 17 6 22 98 5 98-8 0-9 3-3 8 6 4 15 22 22 39 11 31 10 33-13 31s-24-5-24-91zM7756 4087c-12-9-17-23-14-42 3-27 7-30 42-33 154-11 273-231 321-592 17-125 19-322 4-440-21-171-84-400-172-625-47-121-104-245-113-245-3 0-21 12-39 28l-89 71c-43 34-53 47-45 57 17 21 1 73-29 89-15 8-43 29-62 46s-29 29-22 25 12-1 12 8c0 8-4 16-10 18s-12 198-16 516l-6 513 21-12c32-21 39 0 8 27-25 21-28 30-25 74 2 29 8 50 14 50 7 0 15 17 19 37 8 45 40 90 48 69 3-8-2-16-14-19-25-7-24-30 2-76 22-38 76-87 86-78 3 3-4 22-16 41-16 25-18 35-9 39 10 4 11 7 1 18-8 7-13 39-13 76 0 56 3 64 26 79 14 10 42 20 62 23 42 7 56 31 18 31-13 0-31 8-38 18-9 13-31 21-71 25-32 3-77 15-100 26-38 19-42 19-51 4-23-42-95-108-141-129-82-39-85-27-6 20 89 53 114 77 105 99-7 18-34 24-34 7 0-5-7-7-15-4-10 4-14 2-10-7 7-20-10-41-34-43-12 0-21-5-21-9 1-12-44-45-84-62-36-15-56-40-56-70 0-11 5-15 15-11 13 4 13 2 5-14-5-10-10-21-10-24 0-12 34-5 51 10s19 13 33-37c9-30 20-77 25-105 14-75 25-1127 13-1189-7-30-7-51-1-53 11-4 12-72 1-88-10-15-96-71-121-79-12-3-21-10-21-15 0-4-9-10-20-13-26-7-37-36-19-48 8-5 37-15 64-23 28-8 58-21 68-28 17-12 17-15 2-46-15-29-15-34 2-62 19-33 50-36 45-5-2 11 1 16 5 10 13-16 62-39 70-32 8 9-69 87-79 81-4-3-5 2-2 10 5 12 19 4 65-34 33-27 76-66 96-85 51-50 69-47 69 13 1 36 8 58 33 95 38 55 37 74-4 97-28 15-30 21-33 83l-3 67 26-12c22-10 29-26 28-65-1-7 5-13 13-13 14 0 18 12 15 38-3 19 28 2 118-67 85-64 165-155 210-241 32-60 61-81 86-60 11 9 12 17 3 38-6 15-11 73-11 128 0 98 3 108 58 265 136 391 175 564 178 789 3 261-62 548-178 780a643 643 0 01-146 222c-84 85-138 108-183 75zm-210-246c-7-11-66-20-66-10 0 4 12 10 28 12l35 6c5 0 6-3 3-8zm-301-81c-10-11-20-18-23-15-7 6 18 35 31 35 5 0 2-9-8-20zm835-1370c0-5-7-10-15-10s-15 5-15 10c0 6 7 10 15 10s15-4 15-10zm-467-65c10-9 15-20 11-23-3-4-9-1-11 6-3 6-9 12-15 12-18 0-68 41-68 57 0 14 26-2 83-52zm-289-153c-6-20-82-65-96-56-7 5 57 52 99 73l-3-17zM9860 4025c0-11 5-15 16-11 8 3 12 2 9-4-4-6 1-17 9-26 11-11 16-12 16-3 0 43 90-119 92-166 2-39 8-50 19-34 6 10 9 7 10-11v-34c-1-4 4-15 11-23 10-13 13-12 19 5 12 32-9 95-79 241-9 18-26 37-38 41-12 5-23 13-25 19-2 5-16 13-31 16-22 6-28 4-28-10zM1460 3896c-183-42-477-208-701-395a806 806 0 01-314-545c-25-172-17-314 35-566 39-196 52-321 40-395-13-80-28-115-51-115-10 0-22-7-27-16-6-11-16-13-35-9-32 8-100 68-90 79 5 4-1 14-11 22-31 22-8 36 38 23 32-9 41-8 55 6 15 15 15 17-3 30l-52 44c-19 18-44 31-60 31-38 0-84-50-84-92-1-30-2-31-14-15s-36 24-36 11c0-3 7-12 15-20 8-9 16-27 16-42l3-40c2-21 84-89 114-95 15-3 42-19 60-36 34-33 58-41 48-16-4 10 1 15 14 15 11 0 34 13 52 28 18 16 48 37 66 48 38 22 70 68 100 144 51 132 53 291 7 600-35 231-35 377-1 514 13 54 29 102 36 106s11 14 8 22c-3 7 9 42 26 78 28 58 35 66 72 78 26 8 58 31 84 58 43 46 64 54 74 29 8-22 21-18 36 10 7 14 17 25 22 25 4 0 8-47 8-104 0-78-4-107-14-115-18-15-68-10-74 7-2 7 2 10 11 6 12-4 13 2 7 38-5 24-6 55-3 71 4 20 2 27-11 27-9 0-16-6-16-14s-18-36-40-61-40-52-40-60c0-7-11-26-24-42-12-15-21-34-19-40 8-23 30-14 47 20 18 37 20 29 6-28-7-32-6-43 7-57 17-19 43-24 43-9 0 6-4 13-10 16-5 3-10 11-10 18s6 6 15-4c11-10 15-39 16-99 1-80 9-110 30-110 5 0 9 46 9 103v104l37 11 36 11-7-534c-3-305-11-546-16-560-6-15-24-32-45-41-19-8-35-19-35-24 0-15 33-12 59 6 22 16 23 16 12-5-11-19-23-25-43-22-27 4 13-71 53-100 17-12 37-36 44-53s22-39 33-49c19-18 21-17 68 33 56 60 154 121 243 151 46 16 61 25 59 38-3 12-15 16-50 16-51 0-82 21-92 60-3 12-22 32-41 44-34 20-35 22-36 83l1 616c0 482 3 556 16 569 13 14 14 13 8-11-10-43 21-32 56 20 29 44 31 51 25 108-5 52-3 65 16 91 19 28 21 28 15 6-5-26 8-61 24-61 6 0 10 11 10 25s7 28 15 31 26 29 40 57 25 43 25 34 3-17 8-17c11 0 33-53 24-59-21-14-20-57 2-94 13-21 26-38 30-38 3 0 13-2 21-6 26-9 30 6 8 30-11 12-23 29-27 37-7 13-6 13 6 0 17-19 69-43 77-35 3 4-6 17-20 29s-28 30-32 39c-3 9-11 17-17 17-5 0-10 5-10 10 0 18 59 11 69-7 5-10 9-20 8-23-2-15 29-47 40-43 12 5 13-117 11-759l-3-765-43-46-42-47 62-61c94-91 102-95 130-69 35 34 197 107 252 114 51 6 76 20 76 41 0 9-24 16-74 20-41 4-84 12-97 19-27 13-39 39-14 29 15-5 16-3 6 15-6 11-16 22-23 24-10 4-13 149-11 704 1 384 5 733 9 774 6 68 9 77 40 105 19 17 34 41 34 52 0 18-6 20-57 19-99 0-223 69-223 125 0 29-14 40-23 17-3-9-14-4-34 15-33 31-78 34-173 13zm-46-218c-15-27-19-30-22-14-2 11 3 23 12 28s16 17 17 26c0 9 3 12 5 5 3-6-3-27-12-45zm-103-49c-12-19-21-27-21-18 0 25 24 69 33 60 5-5-1-24-12-42zm-70-145c6-8 4-14-6-18-12-4-15 3-14 37 1 28 3 33 6 17 3-14 9-30 14-36zm-390-28c-57-58-93-70-53-19 21 29 68 61 92 63 2 0-15-20-39-44zm310-213c-4-28-6-32-9-15-3 22 3 52 11 52 1 0 1-17-2-37zm644-605c-4-10-14-14-27-10-20 5-20 5 3 18 28 14 32 13 24-8zm-535-538c0-5 3-17 7-27 3-10-8-1-25 21-39 47-40 51-7 30 14-9 25-20 25-24zM10920 3890c0-5-9-10-19-10-11 0-32-16-47-35-14-19-30-35-35-35-4 0-24-11-44-24-20-14-42-23-50-20-7 3-19-4-25-15-9-19-6-26 24-54 58-56 57-45 57-547l-1-680c0-347-1-390-15-423-6-15-10-16-16-5-7 10-11 10-21 0s-10-14 0-21c9-5 5-11-13-21-14-7-25-19-25-26 0-6-13-17-29-22-21-7-31-19-36-41l-7-31-42 43c-69 72-81 105-81 232 0 104 3 119 48 257 67 207 83 294 68 362-28 124-144 204-238 164-37-16-73-48-73-66 0-8 12-26 26-39 21-19 31-22 52-15 38 12 43 37 6 28-27-6-28-5-10 9 24 18 77 20 94 3 7-7 12-33 12-59 0-47-20-105-114-331-56-134-72-209-58-275a540 540 0 01231-328c39-26 73-55 75-64l11-48c4-18 11-33 16-33 6 0 7-9 4-20-6-20 9-50 25-50 4 0 8 20 8 44 1 24 8 62 15 85 10 26 11 41 4 41-6 0-8 2-6 5 3 2 15 2 27-2 21-5 21-6 5-19-29-21-5-33 86-45 62-8 106-8 172 0 147 19 192 38 374 160 173 115 221 136 281 125l35-6-35-26c-25-17-36-33-36-50 0-26-3-25 69-6 17 5 22 4 17-4-4-7-16-12-27-12s-19-7-19-16c0-13 7-15 33-10 30 5 31 5 12-9-11-9-26-12-35-9-8 4-32 9-52 12-33 4-38 1-44-23-11-45 23-79 82-83 65-5 107 19 139 76 24 43 34 116 17 124-4 2-17 19-29 38s-47 51-79 70c-55 33-64 35-159 38-89 3-105 1-146-20l-46-24-26 28c-15 15-27 30-27 33 0 20-29 33-61 26-30-6-34-11-33-37 0-16 4-41 8-55 6-22 2-33-21-59l-29-33-40 26c-52 35-103 79-81 71 9-3 17-2 17 4s-6 12-12 14c-9 3-8 12 6 32 18 28 18 29-3 55-44 55-44 48-45 737-1 733-4 701 65 728 49 20 49 38 1 59-37 16-123 94-89 82 9-4 17-11 17-16 0-11 69-63 76-57 3 3-22 36-55 74-33 37-58 71-55 76 3 4-2 8-10 8-9 0-16-4-16-10zm-24-332c5-7 3-8-5-4-7 5-21 0-32-10-23-20-26-12-3 10 18 19 30 20 40 4zm109-1375c-1-21-24-63-25-46 0 6 5 15 10 18 7 4 7 12 0 25-15 28-13 45 3 31 8-6 13-19 12-28zm69-172c-6-7-57 33-62 49-3 7 11 0 31-16 20-15 34-30 31-33zm-162-27c-9-7-14-14-10-14 17 0-110-108-135-114l-29-7 36 32c20 17 36 37 36 45 0 7 6 11 14 8 16-6 31 21 35 65 1 7 7 11 16 7 9-3 15 0 15 9 0 8-4 15-10 15-5 0-10 5-10 12 0 6 13-1 30-17 27-26 28-29 12-41zm-110 22c4-18 1-23-9-19-8 3-29-7-46-23-55-51-97-76-97-60 0 12 49 49 84 65 6 2 21 17 34 32 13 16 25 29 27 29 1 0 5-11 7-24zm230-105c-4-30-12-35-91-60-40-13-167-14-136-1 11 4 37 25 56 46 20 22 45 44 56 50 17 10 19 9 19-9-1-32 21-31 39 2 15 30 17 30 39 16 17-11 22-22 18-44zm-369-104c7 4 8 0 4-11-4-10-7-25-8-34-1-10-4-7-9 8-9 28-12 63-3 42 2-6 10-9 16-5z"/>
    <path d="M10610 3659c-9-15-8-24 1-35 8-10 8-14 0-14-6 0-11-4-11-10 0-5 7-10 15-10s15 5 15 12c0 8 4 8 14-2 21-21 24-89 6-101-13-8-11-13 10-31l25-21-23 8c-20 6-23 4-20-12 2-10 12-19 23-21 16-2 24 7 37 42 9 24 15 53 13 63s-4 28-4 40c-1 12-14 38-31 56-16 19-30 40-30 46 0 19-29 12-40-10zM7970 3645c0-8 7-15 15-15 9 0 12 6 9 15-4 8-10 15-15 15s-9-7-9-15zM10022 3613c5-25 28-28 28-4 0 12-6 21-16 21-9 0-14-7-12-17zM7970 3606c0-8 7-17 16-20 21-8 26-3 18 18-8 20-34 21-34 2zM1969 3583c-7-20-6-28 3-35 10-6 10-8 1-8-10 0-13-40-13-165 0-103 4-165 10-165s10-4 10-10c0-5-6-7-14-4-10 4-12-10-10-72 2-42 7-80 10-85 11-19 23-8 30 28 5 29 3 39-11 50-11 7-14 13-7 13 18 0 32 70 23 113-5 21-5 39 0 43 5 3 6 58 2 125-5 108-4 119 11 119 14 0 15 4 6 20-6 12-7 20-1 20 5 0 7 9 4 20-8 29-42 25-54-7zM7562 3559c0-33 5-52 14-56 8-3 14-18 14-34s5-29 13-29c9 0 8-3-2-9-11-7-12-91-8-486 6-467 6-479 27-504 11-14 23-34 27-43 10-33 37-19 66 33 16 29 25 55 20 59-12 12-56 23-50 14 2-5 1-20-4-33-13-33-26-17-34 42-6 39-5 47 9 47 19 0 22 30 4 30-7 0-5 5 5 11 21 12 22 29 2 29-23 0-27 37-23 188 2 103 7 143 18 157 13 15 12 19-1 29-11 8-16 28-16 66l-3 65c-8 33 1 295 10 295 11 0 55-90 61-124 8-39 26-25 39 30 12 49 12 61-2 99-9 24-14 53-11 64 7 29-23 28-38-1-10-18-13-19-17-8-8 25-34 50-52 50-9 0-24 16-33 35-24 49-37 43-35-16zM4170 3570v-15c1-16-55-55-72-49-10 3-18 1-18-5s4-11 9-11c20 0-5-48-48-93-25-26-49-56-52-65-4-10 5-44 20-77l26-60 2-339 2-339-30-43c-16-23-39-46-51-50-41-13-78-47-78-71 0-22 3-23 38-18 36 6 37 6 12-9-22-13-23-15-7-21 9-4 26-5 36-2 12 3 32-6 53-24 18-15 43-28 55-29 29 0 72 38 118 104l38 55-2 370-2 371 29-6c41-8 51 21 17 48-14 11-25 27-25 35 0 13 5 12 25-7 27-25 47-21 25 5-21 25-5 28 49 10s71-37 71-80c0-33-47-86-68-77-12 4-14 1-8-14l8-24c2-20-4-30-17-30-25 0-17-29 10-36 30-7 30-5 5-51-26-48-25-56 5-90 20-23 26-25 34-13 5 8 7 18 5 22-3 4 2 5 10 2 14-5 16-33 16-185 0-196-3-207-60-224-31-9-70-44-70-62 0-12 4-14 37-17 6-1 34-25 62-54 27-28 58-52 68-52 26 0 129 107 148 152 12 31 14 66 10 195-12 330-13 578-3 598 6 11 27 37 47 58l36 38-56 52c-30 29-58 59-62 67-28 56-55 90-72 90-14 0-41-57-32-67 10-9-52-123-67-123-28 0-46 12-46 31 0 10-12 25-27 33a362 362 0 00-90 76c14-10 17-10 17 4 0 10-9 16-25 16-21 0-25 5-24 23 3 30-11 87-22 87-5 0-9-4-9-10zm245-649c0-31-3-44-8-35-4 8-15 14-24 14-15 0-15 2 0 18 10 10 17 26 17 35s3 17 8 17c4 0 7-22 7-49zM10030 3545c0-8 7-15 15-15s15 7 15 15-7 15-15 15-15-7-15-15zM8007 3358c2-109-1-181-8-194-8-16-5-28 17-62 15-23 31-42 34-42 10 0 3 266-9 335-6 33-11 77-11 98 0 24-5 37-13 37-11 0-13-35-10-172zM6766 3485c-11-19-16-38-13-42 12-11-13-31-33-26-15 4-20 0-20-14 0-20-64-63-94-63-15 0-46-47-46-70 0-20 20-9 35 20 9 17 23 30 31 30 9 0 42 16 75 35 32 19 59 30 59 26 0-13-86-68-125-81-22-7-37-21-46-43-8-18-13-35-12-39 1-3-4-12-12-18-8-7-15-20-15-30s-7-23-15-30c-17-14-14-82 3-88 7-2 12-12 12-22 0-28 56-63 111-68 100-9 131 22 96 95l-21 43 102 103c56 57 102 112 102 121 0 36 44 6 64-44 22-55 20-107-7-157-28-54-200-231-231-239-13-3-47 2-77 10-75 23-136 21-149-4-20-38-23-132-6-200 36-139 98-240 216-348 38-34 67-68 65-75-8-22 23-49 56-50 28-2 36 3 49 28 8 17 35 55 59 85 77 97 88 161 41 249-53 99-100 103-100 9 0-44-4-53-37-83l-37-34-36 32c-20 18-32 35-27 38 4 3 2 11-5 17-13 10-18 12-38 12-5 0-10 7-10 16 0 8 5 12 10 9 14-9 12 1-6 37-27 52-15 138 20 138 7 0 39-17 72-38 79-50 108-62 153-62 47 0 63 25 31 47-11 8-20 22-20 31 1 16 2 16 14 0 14-19 36-24 36-10 0 5-9 17-21 28-28 25-22 42 62 175 67 105 72 117 77 180 3 51 0 75-13 100-9 19-18 42-20 52-7 33-46 85-100 135-40 37-71 55-124 72-39 12-77 20-86 16-9-3-15 0-15 9 0 25-15 17-34-20zm59-185c3-5 2-10-4-10-5 0-18-3-28-7-16-6-16-5-4 10 15 19 27 22 36 7zm-33-818c21-17 34-33 29-36-12-8-88 55-94 77-6 21-11 24 65-41zM6237 3482c-10-10-17-23-17-28 0-6-16-26-36-45-52-50-59-67-38-90 24-26 35-276 27-597l-6-243-54-46c-50-43-65-74-43-88 5-3 18 0 29 7 17 10 23 10 33 0 7-8 9-13 3-12-21 4-35 0-35-11 0-7 12-10 29-7 23 3 32-1 45-24 10-15 26-33 37-39 25-13 52 8 80 62 17 34 37 47 97 64 15 4 25 17 29 36 3 16 9 29 14 29 12 0 11 47-1 71-6 10-17 19-24 19s-20 8-29 18c-23 25-34 737-12 766 25 33 18 60-25 95-22 17-40 38-40 46s-9 19-19 25c-25 13-25 13-44-8zm176-993c5-20 5-20-15-3-11 11-24 27-30 37-9 17-8 18 15 2 14-9 27-25 30-36zM9414 3487c-47-27-213-214-237-267a827 827 0 01-58-451c24-167 65-261 183-417l80-107-32-26c-24-21-30-32-25-48 7-22 20-27 29-12 3 5 22 12 42 15 72 14 82 24 110 110 33 101 72 187 112 250l32 50-25 26c-28 30-32 42-10 34 27-11 16 8-40 67-30 32-55 65-55 74s-4 14-9 11c-14-9-44 70-37 98 10 38-18 33-43-8-27-43-26-79 4-141 31-63 31-91-1-168-36-86-40-90-67-64-13 12-23 28-22 36 0 7-8 15-18 17-24 3-35 16-20 21 10 3 8 13-5 36-23 44-22 254 2 347s82 204 127 245c43 38 53 41 111 23 33-10 41-9 55 5 15 15 14 19-12 59-16 24-30 48-31 54-2 13-75 83-86 84-5 0-8 7-8 15s-4 15-9 15-11 6-13 14c-2 12-7 12-24 3zm-55-1001c12-13 18-27 13-30-9-5-30 14-46 42-12 21 9 13 33-12zM1548 3445c4-39 2-45-12-39-22 9-21-22 2-35 15-9 15-10-4-11-23 0-44 36-44 75 0 33-14 31-39-4a99 99 0 01-2-117c10-17 22-45 26-63 13-58 42-20 44 58 1 29 3 32 16 21 10-8 15-31 15-66 0-36 4-54 13-54 8 0 9-3 1-8-7-4-12-58-13-147-1-77-4-148-7-158s0-25 7-34c7-8 18-24 24-36 25-51 30-23 27 168-2 139-6 195-14 195-9 0-9 3 0 12 16 16 15 75 0 81-10 4-10 6 0 6 8 1 12 24 12 81 0 67-3 83-20 100-30 30-38 24-32-25zM4916 3469c-15-22-37-37-93-64-36-17-45-41-12-32 16 4 18 3 9-8-12-15-5-55 10-55 18 0 30-141 35-434l6-309-23-13-54-28c-39-19-56-51-21-41 12 4 37 16 56 26 18 11 36 17 40 14 9-9-29-35-61-42-33-6-54-29-63-65-6-22 1-35 37-75 23-26 48-51 55-55 6-5 9-17 6-28s-1-20 4-20 10-19 12-42c3-58 17-68 25-19 3 24 14 46 27 54 11 8 21 21 23 29 1 8 18 30 39 47 20 18 37 40 37 49 0 8 3 12 7 9 3-4 13-1 21 5 12 11 26 0 83-60l69-74 30 22c16 12 42 36 56 55 18 24 36 35 65 40 21 4 42 11 45 16 3 6-12 29-33 53s-53 64-71 88l-66 85c-25 30-32 48-29 67 8 38-13 32-42-13l-26-38 21-54c25-67 25-81 0-104-17-15-24-16-45-7-27 13-37 56-10 46 8-4 15-1 15 5s-7 11-15 11-15 6-16 13l-4 47c-1 19-6 159-9 310-5 217-3 292 8 355 8 44 17 88 21 97 8 21-110 157-137 158-9 0-24-10-32-21zm34-489c12-8 9-10-12-10-16 0-28 5-28 10 0 13 20 13 40 0zM2430 3465c-8-9-10-28-6-52 4-21 9-103 12-183l4-145-34 65c-41 76-71 195-63 250 9 70-44 84-90 23-15-21-42-56-61-78-35-42-85-186-97-280-3-27-12-70-20-95-15-52-3-196 21-263 8-20 14-48 14-61s7-29 15-36 15-20 15-29c0-27 76-161 100-176 6-4 8-27 5-56-5-55 8-132 24-137 5-2 8-9 5-17-7-16 13-55 27-55 5 0 9 10 8 23v57l1 35 31-47c17-27 38-48 46-48 9 0 46 29 84 64 58 55 79 68 141 87 40 13 77 26 82 30 5 5-5 24-23 44l-32 37v216c1 120 0 292-2 384l-2 167 35 31 35 30-50 42c-27 23-82 75-121 115-40 40-76 73-82 73-5 0-15-7-22-15zm-22-513l34-37-7-85c-11-147-20-214-33-237-9-16-9-22 0-25 8-3 7-11-4-27s-17-19-21-9-8 10-16-2c-7-10-7-16 0-18 8-3-32-42-44-42-2 0-17 19-33 41-28 41-28 42-29 198 0 116 5 176 18 233l18 77 41-15c23-8 57-31 76-52zm32-447c0-17-6-25-17-25-9 0-29-12-45-27-15-14-31-23-35-19-6 6 81 94 95 96 1 0 2-11 2-25zm-151-253c0-24-1-25-9-7-12 28-12 47 0 40 6-3 10-18 9-33zM8740 3460c-8-15-8-37-1-73 13-72 22-248 12-271-6-15-12-7-33 40a446 446 0 00-57 209c-6 84-7 90-29 93-13 2-30-2-38-9a964 964 0 01-119-160c-26-50-65-190-65-236 0-23-5-45-10-48-6-4-10-12-8-18 1-7-2-23-6-36-10-30 11-205 30-249 8-18 14-43 14-55s7-33 16-45c8-12 13-26 10-31s3-19 13-32 21-34 25-46c4-13 12-23 17-23s9-7 9-16 16-31 35-49c26-25 31-34 20-39-26-10-16-40 28-91 24-28 53-65 66-82 12-18 31-33 42-33 12 0 19-7 19-19 0-10 7-24 15-31 13-11 15-7 15 28 0 23 5 44 11 47 6 4 8 13 5 20-3 8 2 11 15 8 13-4 19 0 19 11 0 30 62 74 120 87 30 7 61 17 68 22 9 7 12 4 12-12 0-12 6-21 15-21 18 0 20 41 5 71-12 21-40 26-40 7-1-7-7-2-15 12-11 19-15 68-15 215 0 105-3 276-6 382l-6 192 33 31c31 28 33 32 20 53-13 20-13 21 3 8 9-8 19-11 23-7 4 3-21 33-55 67-34 33-62 64-62 69 0 6-7 10-15 10-16 0-20-29-7-45 4-6-19 18-51 53-63 66-80 74-97 42zm5-537c6-17-6-10-57 30-20 16-41 27-46 23-11-7-35 42-27 55 7 10 121-86 130-108zm-126 1c6 4 11 0 11-8 0-9 4-16 9-16 4 0 6-22 3-50-3-30-1-50 5-50 13 0 43 61 37 72-12 19 45-7 58-26 4-6 8-97 8-202v-192l-26-16c-30-21-60-17-58 7 1 9-4 17-11 17s-28 19-46 43l-34 42 43-37c41-37 72-49 72-28 0 6-3 10-7 10-5 0-32 23-62 51l-53 52 4 156c5 154 13 205 28 181 4-7 13-9 19-6zM2909 3463c-10-2-20-19-23-38-5-23-19-44-46-65-47-37-58-65-36-89 13-15 16-52 16-252-1-129 2-376 6-550 4-201 3-323-3-335-15-27 4-168 29-221 35-74 123-138 216-156 23-5 41-1 65 13 17 11 40 20 50 20 11 0 21 9 24 19 3 14 20 23 54 31 27 7 52 16 55 21 3 6-9 27-28 49-35 41-63 45-98 16-19-17-71-33-90-29-9 2-26 25-39 52-23 48-23 52-30 612-6 445-5 577 6 632 7 38 15 73 18 77 3 5-15 39-40 76s-49 80-52 95c-5 28-16 33-54 22zm43-125c-9-9-15-9-24 0s-7 12 12 12 21-3 12-12zM9940 3392c0-14 48-54 60-50 7 2 1 14-14 31-24 26-46 35-46 19zM10667 3363c-6-30 7-53 29-53 20 0 19 66-2 74-22 8-21 9-27-21zM10670 3221c0-77 6-91 38-91 12 0 1 154-11 162-24 15-27 7-27-71zM5279 3249c-11-23-29-44-40-46-26-7-24-12 21-58 30-30 43-36 51-28 9 9 9 16 0 27-18 21-5 79 16 72l16-6-1-50c-3-35-8-50-18-50-17 0-18-12-2-28 9-9 9-12 0-12-19 0-14-24 7-37 19-12 20-25 19-228-1-118 2-218 5-221 4-4 13-2 21 5 11 10 13 63 9 319-5 305-6 307-29 335-13 16-24 33-24 38 0 25-32 4-51-32z"/>
    <path d="M6425 2973l4-350c1-22 6-33 16-33 13 0 15 22 17 133 1 176 1 312-2 367-2 25 1 61 4 80 5 21 3 47-5 65-7 17-11 36-10 43 1 6-5 12-13 12-13 0-14-41-11-317zM4681 3184c-25-32-26-44-6-44 18 0 20-16 2-23-10-4-12-55-10-238 3-204 9-268 26-248 3 2 7 55 11 117 5 87 4 112-6 112s-10 2 1 9c10 7 13 38 12 134-2 108 0 125 15 131 13 5 14 9 5 20s-9 15 0 18c17 6 4 38-15 38-8 0-24-12-35-26zM10674 3043c4-43 13-81 19-85 9-6 9-8 0-8-7 0-13-7-13-15s7-15 15-15c12 0 15 14 15 68 0 40-5 73-12 80-9 9-9 12 0 12 7 0 12 9 12 20 0 14-7 20-21 20-21 0-22-3-15-77zM1950 2811c0-30 4-41 16-41 11 0 14 9 12 37-4 52-28 56-28 4zM3098 2688c4-90 15-115 37-85 14 20 11 64-9 126-20 63-31 46-28-41zM1957 2753c-4-3-7-55-7-115 0-84 3-108 13-102s10 4 0-7c-9-9-13-61-13-184 0-169 0-171 27-213 28-42 78-70 108-58 20 7 7 36-17 36-37 0-61 79-70 235-13 233-11 307 8 318 16 9 16 11-1 23-17 13-17 14-2 14 23 0 21 16-3 40-21 21-32 24-43 13zM1575 2670c-10-11-26-20-37-20-23 0-23-1 9-55 31-49 58-61 51-21-3 14-2 45 2 70 8 51 2 56-25 26zM9060 2578c1-24 10-59 20-78 11-19 28-54 39-77 17-36 54-64 67-50 3 3-9 26-26 53-33 53-70 144-70 174 0 11-7 20-15 20-11 0-15-11-15-42zM3117 2576c-26-20-21-159 6-164 14-3 17 4 17 41 0 27-5 47-12 50-10 4-10 6 0 6 6 1 12 12 12 26s4 25 9 25 11 7 15 15c7 19-22 20-47 1zM4763 2575c-20-22-15-35 13-35 20 0 25 4 22 22-4 26-19 32-35 13zM6500 2515c0-8 7-15 15-15s15 7 15 15-7 15-15 15-15-7-15-15zM1580 2484c0-9 5-14 12-12 18 6 21 28 4 28-9 0-16-7-16-16zM10685 2448c-3-24-5-124-3-223 3-162 5-180 21-183 11-2 17 3 17 17 0 11 4 22 9 25 17 11 19 58 4 110-8 31-14 100-14 174 0 97-3 122-14 122-9 0-16-16-20-42zM3100 2324c0-73 24-70 28 4 2 42 0 52-12 52-13 0-16-12-16-56zM8462 2345c1-22-6-43-17-56-19-20-19-21 15-47 49-38 83-72 109-109 22-33 44-42 56-23 7 12-18 53-68 108-42 47-67 98-67 137 0 15-6 25-15 25-10 0-14-10-13-35zM9159 2342c15-28 143-142 153-136 12 8-95 144-113 144-10 0-25 3-34 7-15 5-16 3-6-15zM11090 2305c-15-18-5-35 21-35 24 0 37 29 18 41s-25 11-39-6zM2626 2301c-35-7-47-31-16-31 26 0 60 17 60 30 0 11-1 11-44 1zM1575 2238a534 534 0 00-43-191c-12-13-13-20-4-29 17-17 60 27 67 66 11 70 10 206-2 206-6 0-14-23-18-52zM11020 2251c0-5 7-11 15-15 9-3 15 0 15 9 0 8-7 15-15 15s-15-4-15-9zM3177 2243c-12-11-8-23 8-23 8 0 15 7 15 15 0 16-12 20-23 8zM3107 2143c3-32 6-64 8-71 3-7 3-13 2-15-1-1 8-17 21-34 17-25 31-33 53-33 31 0 41 23 15 33-16 6-56 90-56 116 0 14-34 61-44 61-1 0-1-26 1-57zM6236 2184c-4-11-1-14 11-12 9 2 18 9 21 16 6 18-25 15-32-4zM8129 2153c-18-47-39-162-39-211 0-60 27-114 63-127 41-14 56 13 23 40-14 11-30 33-35 48-15 40-13 131 4 202 17 73 18 75 5 75-6 0-15-12-21-27zM360 2082c0-10 43-52 53-52 15 0 6 23-15 41-25 20-38 24-38 11zM5715 1814c-93-14-186-54-270-114-22-16-55-37-73-46s-43-30-55-47c-12-16-50-59-84-93-47-48-74-87-107-156-24-51-47-108-51-126s-15-41-24-50c-21-20-34-52-21-52 5 0 16 10 25 23l17 22-7-25c-4-14-11-29-14-35-4-5-7-39-6-75s-1-69-4-75c-3-5-4-22-2-37 1-14-2-29-8-33-6-3-11-15-11-25 0-15 6-19 25-18 14 1 25 6 25 11 0 4 5 5 10 2 8-5 7-11-1-21-9-11-8-18 1-29 7-9 13-29 12-45 0-20 4-30 14-30 11 0 14 15 14 63 0 34 9 104 20 156s20 110 20 129c0 27 3 33 16 28 8-3 13-2 10 3s10 40 29 77c40 80 157 210 163 182 4-19 32-25 32-8 0 7 6 7 19 0 11-5 33-10 50-10 24 0 32-5 37-24 3-14 3-33 0-43-7-24 7-76 22-81 7-2 15 5 19 15 3 10 15 29 24 42l18 23 12-26c10-21 9-33-5-65-19-42-14-81 10-81 38 0-4-147-55-190-36-31-43-58-32-111 6-28 8-61 5-75-4-17-2-24 8-24 24 0 53 40 53 73 0 35 22 49 27 16 9-60 48-4 48 68 0 36 22 89 40 95 5 1 13 31 16 66 5 45 11 62 22 62 12 0 14 10 9 53l-6 52 19-25c19-24 27-47 48-139 8-35 7-49-4-67-16-23-11-63 11-99 6-11 17-37 24-57 7-21 16-38 21-38 11 0 30 66 30 105 0 17-9 44-19 62-12 18-17 40-14 53 4 13 0 25-7 30-11 7-8 20 12 65 14 31 28 53 31 48 3-4 8-53 12-108 5-65 12-106 22-117 19-21 23-132 5-150-15-15-16-42-1-32 8 5 8 1 0-14-7-14-17-18-31-15-14 4-20 0-20-12s5-15 17-11c9 4-4-11-28-33s-49-40-55-41c-17 0-31-21-39-58-5-25-3-32 9-32 9 0 16-4 16-10 0-5-7-7-16-3-15 5-16-1-12-52 3-38 11-62 21-70 9-7 14-15 11-18-11-10 6-57 19-57 9 0 14 18 15 60 1 34 7 70 13 82 8 15 8 22-1 28-8 5-7 9 5 13 9 4 13 3 10-3-8-12 18-12 68-1 26 6 53 24 80 54 46 48 77 65 77 42 0-30 27-14 58 34 30 45 32 54 26 105-5 43-3 61 10 80 9 14 16 34 16 44 0 20-39 62-58 62-18 0-15-11 10-37 20-21 21-26 9-46-8-12-18-33-22-47-7-18-8-13-4 18 4 33 2 43-7 39-7-2-28 9-45 26-18 17-35 28-39 25-13-13-24-92-18-124 5-26 2-35-10-40-9-4-26-24-37-46-11-21-24-36-30-33-5 4-26-8-45-25-20-17-47-35-60-41-14-5-29-19-34-31-7-18-9-19-9-5-1 19 8 28 104 107 105 87 131 157 82 222-23 30-29 48-30 97-1 34 1 61 5 61 5 0 9 12 9 28l1 27 7-26c12-51 66-158 80-159 8 0 11 6 7 15-3 9 1 18 9 21 8 4 15 16 15 29 0 41 50 55 76 21 6-9 14-13 17-9 4 3 7-2 7-12s8-28 18-39c17-21 17-21-4-3-22 18-74 24-74 8 0-5 14-12 31-16 35-8 54-44 45-88-8-39 3-77 21-77 11 0 14 7 10 21-3 13 2 28 14 40 23 23 59 88 59 108 0 11 3 11 15 1s13-15 4-20c-16-11 5-21 28-14 14 5 15 4 3-4-12-9-12-13 3-30 17-18 23-53 11-64-9-9-48 34-49 54-2 20-12 34-20 26-3-3-8-28-12-55-5-47-3-53 30-90 60-65 61-123 5-207l-31-47 32-29c30-28 45-54 17-31-11 9-22 8-52-8-20-11-40-24-43-29-12-16-82-54-106-57-14-1-34-10-44-19-9-9-20-14-23-11s-21-3-40-13c-19-11-57-23-84-26-84-12-264-15-287-6-12 5-39 11-59 15-21 3-44 12-52 20-8 9-17 11-21 6-6-11-105 47-105 62 0 5-6 7-14 4s-34 5-58 18c-77 44-71 44-83 6-4-14-3-21 3-18 5 4 27-14 48-38 22-24 44-45 51-45 6 0 13-3 15-8 4-10 90-72 99-72 4 0 35-16 70-35 34-20 68-34 75-31s14 1 16-4 36-21 75-35c79-27 159-31 303-15a940 940 0 01524 236c89 89 182 255 206 369 8 33 17 65 22 72 24 31 26 220 3 333-3 14-6 32-6 40-2 24-40 141-66 200-44 99-142 219-279 340a936 936 0 01-299 144c-77 23-108 26-215 25-69 0-165-7-215-15zm423-119c14-30-6-26-26 5-10 16-10 20 1 20 8 0 19-11 25-25zm-615-45c3-11 1-23-4-26s-9 6-9 20c0 31 6 34 13 6zm879-132c-9-9-12-7-12 12s3 21 12 12 9-15 0-24zm-519-28c7-26 5-26-22 11-21 28-21 30-3 20 11-6 22-20 25-31zm-193 17c0-7 14-35 32-63 41-65 51-114 27-143-10-12-20-17-24-11-3 5-2 10 3 10 37 0 7 118-43 170-26 26-33 39-23 43 22 9 28 8 28-6zm105-27c23-44 18-48-10-10s-29 40-15 40c5 0 16-13 25-30zm-256-14c0-14-2-16-6-6-3 8-10 21-16 28-7 9-6 11 7 6 9-3 16-16 15-28zm-51-29c-1-41-3-43-27-40-14 3-33 7-41 10-8 4-18 5-22 5-5-1-8 3-8 8 0 6 11 10 24 10 14 0 28 5 31 11 4 6 13 8 21 5 9-3 14 2 14 14 0 11 2 20 4 20s4-19 4-43zm592-17c0-22-26 8-35 40l-6 25 20-25c11-14 21-32 21-40zm-536 3c4-10 4-14 0-10s-13 2-21-4c-10-9-13-8-13 4 0 8 6 18 13 20l13 6c1 1 5-7 8-16zm352-144c13-15 10-29-7-29-13 0-25 84-19 140l5 55 3-75c2-47 8-80 18-91zm244 117c0-5-7-1-15 10-8 10-14 24-14 29 0 6 6 1 14-9 8-11 15-24 15-30zm-481-15c-2-6-12 4-22 22l-18 32 21-21c13-12 21-27 19-33zm183 17c-3-12-11-34-19-48l-13-25v32c0 17 7 39 16 47 21 21 23 20 16-6zm107-38c5 0 12 6 14 13 3 6 6 2 6-11 1-14 6-22 14-19 7 2 12 19 11 41-1 39 6 45 26 21 9-11 8-27-8-77l-19-63-13 36c-7 20-26 44-41 55-19 13-29 27-29 44 1 23 2 23 15-7 8-18 18-33 24-33zm328 41c10-16 9-20-13-24-19-3-24-1-20 10 3 8 6 19 6 24 0 15 15 10 27-10zm-657-73c0-4 11-8 25-8 26 0 26 0 8-24-16-22-19-22-25-6-3 9-17 26-30 36-13 11-24 29-24 42 0 22 1 22 23-5 13-14 23-30 23-35zm-455 13c-3-12-10-21-15-21s-4 11 2 25c13 29 23 26 13-4zm1222-23c0-18-1-24-4-13s-12 24-20 29c-13 7-13 10-2 17 19 11 24 5 26-33zm-567-17c0-6-4-12-9-16-11-6-9-70 2-81 4-4 7-14 7-23 0-22-15-2-29 38-9 27-8 41 1 63 13 27 28 38 28 19zm233-43c-6-34-40-108-48-108-3 0-5 18-5 40 0 29 7 47 28 69l29 30c1 1 0-14-4-31zm627-29c0-30-17-31-24-1l-12 47c-5 18-3 18 15-4 12-13 21-31 21-42zm-956 14c-3-54-5-59-14-38-13 31-12 65 3 65 8 0 12-11 11-27zm243-30c-3-10-5-2-5 17s2 27 5 18c2-10 2-26 0-35zm743-100c0-2-9 2-20 9-13 8-20 23-20 43l1 30 19-39 20-43zm-976 16c-12-20-20-7-16 23 5 31 5 31 13 9 5-12 7-27 3-32zm231-1c-4-29-7-61-7-71 0-9-4-15-9-11-5 3-8 13-5 22l11 65c3 26 9 47 12 47s2-24-2-52zm428 2c-3-11-10-20-15-20-6 0-7 7-4 16s6 20 6 25c0 6 4 8 9 5s7-15 4-26zm-536-7c-10-22-13-24-15-9-2 10 2 22 10 27 19 12 19 12 5-18zm213-79c-8-27-8-25-7 14 0 27 3 38 8 29 5-7 4-27-1-43zm-367 25c3-13 1-19-6-16-15 5-22 37-9 37 5 0 12-9 15-21zm577-59c0-13-1-13-10 0-5 8-10 22-10 30 0 13 1 13 10 0 5-8 10-22 10-30zm-82 2c2-7-2-10-12-6-9 3-16 11-16 16 0 13 23 5 28-10zm193-2c6 0 7 5 4 10-3 6-1 10 4 10 6 0 11-7 11-15 0-9-9-15-25-15-25 0-32 10-18 24 4 4 9 2 11-3 2-6 8-11 13-11zm319-17c0-21-3-24-9-14-5 8-7 20-4 28 8 21 13 15 13-14zm-424-95c-3-13-14-34-24-47-18-23-19-23-17-2 1 12 10 27 20 35 14 10 17 21 12 47-5 29-4 31 5 12 6-12 8-32 4-45zm-699 0c-12-24-20-47-19-51 1-5-2-6-8-2-18 11-11 38 17 67l29 28c1 0-7-19-19-42zm830 4a68 68 0 01-18-33c0-11-2-11-6-1-5 12 23 52 35 52 3 0-2-8-11-18zm271-113c-14-8-36-60-44-104l-4-20c-1-5-5-1-9 10-5 12-3 25 6 33 7 7 13 23 13 34 0 23 27 58 44 58 6 0 3-5-6-11zm53-52c-22-34-27-32-12 5l17 43c6 18 7 18 11 2 3-10-5-32-16-50zm-325 6c-8-8 25-61 41-67 20-8 39 3 50 26 6 14 12 18 16 11 4-6-6-25-23-41-33-34-37-42-16-42 15 0 30-29 21-39-3-3-10 1-14 8-5 8-17 11-30 6-12-3-19-11-16-16 4-5-1-9-9-9-9 0-16-7-16-16 0-8 3-13 8-11 4 3 13-1 20-9 8-9 9-14 2-14-6 0-18-7-27-15-12-12-13-19-3-30 13-15 5-20-27-16-7 1-13-3-13-9 0-15-27-12-33 3-3 8 10 36 28 63 36 54 52 140 30 161-7 6-11 25-9 42 2 20-1 31-9 31s-7 4 3 10 17 4 23-6c5-9 6-18 3-21zm-336-44c0-10 5-19 10-19 19 0 9-16-58-87-43-47-78-74-97-79l-30-7 38 36c20 19 37 40 37 46 0 7 4 10 9 7 13-9 42 29 36 47-4 8-1 18 4 22 6 3 9 10 6 15s-1 19 5 29c12 24 40 17 40-10zm522-143c-5-18-6-18-14 4-5 12-5 32-1 44 6 20 7 20 13-4 3-14 4-34 2-44zm-72-66c0-4-6-13-14-19-15-13-32 1-22 17 6 10 36 11 36 2zm-706-36c3-9 2-23-3-31-6-12-9-8-13 16-5 32 5 42 16 15zm409-286c-7-13-33-9-33 5 0 8 3 16 6 20 8 8 33-16 27-25z"/>
    <path d="M5686 925c-12-31-7-115 7-115 23 0 48 62 39 95s-36 45-46 20zM6067 529c-3-13-1-19 6-16 15 5 22 37 9 37-5 0-12-9-15-21zM6286 444c-4-9-4-19-2-21 8-8 26 8 26 23 0 19-16 18-24-2z"/>
  </g>
</svg>
