<?xml version="1.0" standalone="no"?>
<!DOCTYPE svg PUBLIC "-//W3C//DTD SVG 20010904//EN"
 "http://www.w3.org/TR/2001/REC-SVG-20010904/DTD/svg10.dtd">
<svg version="1.0" xmlns="http://www.w3.org/2000/svg"
 width="1200.000000pt" height="542.000000pt" viewBox="0 0 1200.000000 542.000000"
 preserveAspectRatio="xMidYMid meet">
<metadata>
Created by potrace 1.15, written by Peter Selinger 2001-2017
</metadata>
<g transform="translate(0.000000,542.000000) scale(0.100000,-0.100000)"
stroke="none">
<path d="M7975 5261 c-27 -12 -51 -41 -59 -72 -4 -21 -11 -25 -28 -22 -39 6
-51 -10 -43 -57 5 -31 14 -46 34 -57 l26 -15 -1 -142 c-1 -158 -7 -189 -32
-182 -9 3 -37 10 -61 16 -46 12 -69 33 -134 118 -39 51 -89 78 -162 88 -16 3
-62 10 -100 16 -61 10 -79 9 -128 -7 -71 -22 -92 -37 -84 -59 5 -13 22 -16 89
-16 93 0 153 -13 162 -35 3 -8 22 -23 43 -33 21 -11 54 -39 73 -63 31 -38 35
-50 32 -90 -3 -32 2 -57 17 -84 20 -38 20 -38 1 -63 -26 -33 -26 -36 14 -54
30 -15 35 -22 41 -68 5 -35 16 -62 34 -83 45 -52 53 -88 36 -161 -8 -35 -16
-97 -17 -137 -2 -118 18 -318 40 -391 13 -43 17 -68 10 -70 -7 -3 -6 -11 3
-25 7 -12 11 -24 8 -27 -3 -3 -34 -1 -69 5 -82 13 -153 3 -188 -26 -34 -28
-77 -51 -68 -36 9 14 11 14 -48 -4 -37 -11 -52 -12 -63 -4 -7 7 -41 22 -76 34
l-62 23 -3 43 c-1 24 -9 78 -18 121 -15 75 -15 77 10 138 20 49 23 67 15 82
-13 25 -12 223 2 303 l10 60 40 0 c24 0 39 -5 39 -12 0 -7 7 -13 15 -13 8 0
15 3 15 8 0 11 66 13 93 3 13 -5 54 -35 91 -67 77 -64 81 -63 92 23 5 44 3 56
-15 79 -23 29 -66 158 -62 189 1 12 -14 33 -39 55 -22 19 -61 56 -87 83 -25
26 -49 47 -54 47 -4 0 -17 -16 -29 -35 -17 -28 -25 -33 -36 -25 -13 12 -34 6
-34 -10 0 -5 8 -10 19 -12 16 -3 14 -11 -24 -73 -23 -38 -48 -71 -55 -73 -8
-3 -41 25 -75 62 -42 44 -70 66 -86 66 -12 0 -33 10 -46 22 -13 12 -24 20 -26
17 -2 -2 -18 -34 -36 -71 -22 -44 -46 -75 -68 -90 -45 -31 -98 -108 -86 -126
5 -8 31 -23 58 -33 42 -15 53 -25 68 -59 29 -69 23 -156 -19 -258 -20 -48 -40
-92 -45 -98 -6 -7 2 -38 21 -84 38 -92 60 -176 60 -228 0 -31 -5 -43 -25 -56
-13 -9 -30 -16 -37 -16 -13 0 -48 -52 -48 -71 0 -5 11 -9 23 -9 13 0 42 -13
65 -30 22 -16 53 -32 67 -36 15 -4 49 -22 77 -40 27 -19 54 -34 60 -34 5 0 6
-10 3 -21 -7 -21 -5 -22 43 -17 30 3 56 0 62 -6 8 -8 18 -2 35 20 53 68 208
110 381 102 87 -4 108 -8 127 -25 29 -27 98 -61 159 -79 26 -8 63 -28 82 -44
53 -47 143 -90 190 -90 l41 -1 -27 -15 c-30 -16 -33 -25 -18 -55 12 -21 40
-25 58 -7 16 16 15 55 0 61 -7 3 -1 6 13 6 39 1 99 29 99 46 0 17 -24 24 -95
27 l-50 3 -3 46 c-3 41 0 49 28 73 17 14 37 26 45 26 16 0 25 46 12 59 -8 8
-6 11 6 11 24 0 21 17 -3 25 -11 4 -41 24 -66 46 -25 21 -50 39 -56 39 -5 0
-23 11 -40 25 -16 14 -25 25 -19 25 6 0 11 5 11 11 0 6 -9 9 -19 6 -30 -7 -47
73 -31 147 6 31 10 82 9 114 -2 49 1 62 20 81 31 31 25 70 -16 96 -21 13 -30
25 -27 35 4 8 10 65 14 125 8 135 22 168 70 175 26 4 53 -3 107 -28 39 -18 82
-32 95 -30 21 3 23 9 26 71 2 37 7 67 12 67 6 0 37 20 71 45 33 24 76 47 95
51 24 4 40 16 54 39 12 19 37 47 56 64 48 42 183 104 274 126 63 15 81 25 113
58 20 22 37 46 37 54 0 24 -30 27 -59 5 -15 -11 -68 -34 -117 -52 -49 -17
-143 -57 -209 -89 -129 -64 -198 -82 -383 -103 -88 -9 -117 -9 -156 2 l-48 13
6 46 c3 25 17 67 31 93 14 26 25 56 25 66 0 11 9 27 21 38 27 24 49 67 49 94
0 20 4 21 53 15 42 -5 56 -3 66 9 17 21 8 44 -24 56 -14 5 -25 14 -25 20 0 5
-7 10 -16 10 -13 0 -15 8 -10 48 13 104 20 93 -74 122 -47 15 -100 34 -118 44
-19 10 -40 15 -48 12 -7 -3 -16 -1 -19 4 -7 12 -23 12 -50 1z m150 -179 c60
-56 64 -143 10 -206 l-23 -27 -36 22 c-53 31 -78 85 -74 162 3 60 4 62 33 68
51 11 59 9 90 -19z"/>
<path d="M5527 5082 c-10 -10 -17 -28 -17 -41 0 -12 -7 -24 -15 -27 -8 -3 -19
-21 -25 -39 -6 -19 -20 -37 -32 -41 -11 -3 -72 -30 -135 -60 -63 -30 -116 -54
-118 -54 -3 0 -41 -18 -86 -40 l-82 -40 -22 20 c-29 27 -80 26 -109 -3 l-23
-23 -16 22 c-13 17 -18 55 -23 153 -7 126 -8 131 -29 131 -23 0 -44 -19 -66
-61 -19 -36 -97 -137 -136 -175 -18 -18 -50 -36 -77 -43 -32 -8 -53 -21 -72
-46 -14 -19 -41 -44 -60 -56 -19 -11 -34 -29 -34 -39 0 -31 -17 -32 -65 -5
-59 35 -59 56 5 166 54 94 72 148 49 150 -29 3 -44 -4 -85 -37 -51 -42 -90
-55 -169 -54 -33 0 -102 -3 -152 -6 -79 -5 -93 -4 -93 9 0 14 -39 27 -85 27
-12 0 -67 -22 -123 -49 -168 -83 -212 -90 -302 -50 -57 25 -97 64 -105 101 -8
33 -45 61 -68 52 -26 -10 -29 -40 -9 -81 11 -21 33 -82 50 -135 66 -206 132
-295 260 -348 42 -17 89 -38 104 -46 47 -25 58 -19 58 31 0 35 5 48 23 59 37
24 93 30 117 13 19 -13 25 -13 48 -1 32 17 55 17 105 3 27 -7 37 -15 37 -30 0
-39 31 -89 59 -95 55 -12 60 -16 66 -44 4 -19 -1 -45 -14 -76 -20 -44 -20 -49
-5 -93 19 -57 12 -130 -19 -186 -21 -38 -26 -40 -78 -46 -31 -3 -62 -9 -68
-13 -14 -9 -106 27 -133 52 -22 19 -23 48 -3 95 30 71 11 128 -34 100 -21 -13
-71 -158 -71 -206 0 -47 38 -130 83 -182 32 -37 37 -39 108 -44 144 -11 300
19 380 73 25 17 39 37 48 68 7 23 32 84 56 135 34 69 43 100 41 129 -2 21 1
51 6 68 5 17 15 51 22 75 l12 45 26 -28 c27 -30 53 -100 43 -117 -4 -5 -11
-52 -16 -105 -4 -52 -13 -103 -18 -113 -7 -13 -4 -38 11 -87 13 -40 22 -97 22
-137 l1 -69 -44 -37 -44 -37 -41 20 c-35 18 -60 21 -161 21 -107 0 -124 2
-155 22 -19 13 -48 23 -65 23 -16 1 -41 7 -55 15 -14 8 -53 15 -90 15 -157 2
-317 35 -438 91 -127 58 -272 209 -272 283 0 25 -24 105 -41 138 -26 52 -50
68 -101 68 -26 0 -48 -4 -48 -9 0 -5 22 -36 48 -68 42 -49 52 -70 67 -138 10
-44 24 -90 31 -102 10 -16 10 -23 2 -25 -15 -5 -1 -28 18 -28 8 0 14 5 14 12
0 31 91 -80 130 -159 8 -18 37 -47 62 -66 26 -18 61 -52 78 -75 17 -24 46 -50
64 -59 l34 -16 -24 -34 c-29 -43 -43 -89 -51 -163 -5 -53 -7 -56 -45 -72 -34
-15 -39 -21 -36 -45 2 -18 14 -34 35 -48 18 -11 47 -29 65 -40 17 -11 59 -54
93 -94 43 -53 70 -77 92 -83 18 -5 35 -13 38 -18 3 -6 16 -10 27 -10 12 0 35
-16 53 -37 27 -31 37 -36 70 -35 22 1 57 -3 78 -9 29 -8 52 -6 100 7 34 9 76
19 92 21 17 3 39 15 50 28 14 15 44 28 93 38 90 20 214 77 235 108 37 52 1 87
-51 51 -72 -51 -183 -91 -257 -93 -16 0 -95 6 -174 14 -129 13 -147 17 -163
37 -10 12 -18 28 -18 36 0 10 -13 14 -42 14 -57 0 -141 40 -128 60 16 25 11
50 -15 76 -32 32 -32 44 3 44 21 0 37 10 61 40 17 22 41 40 51 40 12 0 26 12
35 30 16 31 25 34 89 23 29 -5 43 -14 58 -39 19 -32 60 -54 101 -54 11 0 30
-11 42 -24 12 -13 27 -25 34 -27 9 -3 9 -12 1 -36 -9 -25 -9 -38 2 -60 12 -25
18 -28 64 -27 69 2 97 19 195 119 90 92 113 109 171 119 35 6 38 4 66 -36 52
-76 132 -230 132 -253 0 -12 7 -28 16 -35 13 -11 19 -10 36 8 16 16 22 39 28
101 4 44 13 88 21 97 8 10 44 41 82 71 37 30 67 61 67 69 0 8 11 40 24 72 13
31 26 70 30 86 7 27 6 28 -21 22 -15 -3 -41 -9 -58 -12 l-30 -6 6 129 c4 71
12 140 19 156 11 22 11 42 0 111 -7 46 -10 95 -6 110 4 15 2 26 -4 26 -16 0
-12 98 6 125 13 20 15 40 11 98 -4 39 -3 122 1 182 l7 110 91 0 91 0 -11 -25
c-6 -14 -14 -28 -19 -31 -5 -3 -11 -48 -14 -100 -6 -127 -8 -148 -16 -156 -16
-15 -5 -62 19 -88 l26 -28 -16 -91 c-9 -50 -24 -112 -32 -138 -13 -39 -14 -59
-4 -120 10 -71 11 -94 11 -228 0 -35 6 -90 14 -121 8 -31 15 -67 15 -80 1 -16
12 -31 33 -44 27 -17 33 -28 37 -70 3 -28 13 -63 21 -80 9 -16 21 -55 28 -85
12 -49 18 -59 53 -79 22 -12 42 -20 45 -17 3 3 28 -6 54 -20 48 -27 79 -27 79
-1 0 8 -14 20 -30 27 -42 17 -85 91 -71 119 6 11 11 37 11 57 0 32 7 45 49 85
27 26 75 64 107 86 46 30 62 48 74 80 9 23 27 55 42 70 14 15 36 49 48 75 21
45 108 138 130 138 15 0 11 -82 -5 -104 -8 -11 -15 -27 -15 -37 0 -9 -10 -23
-22 -32 -21 -14 -22 -16 -6 -29 16 -13 73 -78 115 -131 19 -24 24 -26 50 -17
l28 10 -27 -21 c-19 -14 -28 -30 -28 -48 0 -32 37 -71 67 -71 24 0 53 30 53
54 0 14 7 13 48 -10 74 -43 93 -63 79 -84 -8 -14 -8 -22 2 -34 17 -20 44 -9
37 17 -5 19 -4 18 18 -2 25 -23 47 -26 77 -10 16 8 26 7 44 -5 14 -9 30 -16
36 -16 7 0 64 51 128 113 125 121 236 217 252 217 16 0 10 28 -8 34 -10 3 -27
25 -38 47 -22 47 -23 125 -3 217 9 40 8 58 -1 79 -10 22 -10 28 3 35 22 12 20
28 -2 28 -30 0 -31 8 -10 62 16 43 17 55 6 87 -13 37 -18 191 -6 191 3 0 9 19
13 43 3 23 18 68 32 100 16 34 23 60 17 65 -5 5 -39 21 -76 36 -57 24 -72 26
-98 18 -35 -13 -169 7 -217 31 -39 20 -190 16 -223 -5 -14 -9 -44 -22 -67 -29
-23 -6 -54 -25 -69 -40 -22 -23 -37 -29 -70 -29 -56 0 -91 -14 -99 -40 -4 -13
-12 -19 -21 -16 -16 6 -19 -15 -4 -30 16 -16 49 -128 41 -139 -4 -5 -18 -43
-32 -83 -23 -72 -24 -73 -6 -105 11 -18 15 -29 11 -24 -4 4 -27 -12 -51 -35
-33 -32 -43 -50 -43 -74 0 -22 -10 -42 -30 -64 -18 -20 -30 -43 -30 -60 0 -32
-28 -60 -60 -60 -13 0 -36 -14 -55 -34 -17 -18 -46 -41 -65 -51 l-33 -17 6 55
c3 35 14 67 28 87 23 30 23 31 6 58 -34 51 -47 91 -60 181 -11 72 -11 98 -1
138 7 27 12 87 11 133 -2 85 -2 85 46 165 46 76 48 83 45 145 -1 36 1 71 5 78
12 19 37 14 37 -7 0 -27 15 -34 30 -16 17 20 19 199 4 246 -9 27 -9 55 -1 110
6 41 7 87 3 102 -8 32 -35 36 -59 9z m777 -782 c34 0 46 -25 51 -108 2 -37 9
-85 14 -107 7 -28 7 -65 -1 -121 -8 -59 -9 -91 0 -124 9 -38 9 -47 -6 -63 -15
-17 -15 -21 1 -50 18 -31 18 -31 -7 -50 -26 -19 -36 -69 -17 -81 17 -11 -46
-186 -67 -186 -22 0 -57 52 -54 81 3 27 1 29 -20 24 -65 -16 -89 103 -58 286
11 63 10 70 -14 117 l-25 50 23 48 c17 36 25 74 29 139 3 50 8 98 12 108 11
26 76 57 97 46 9 -5 28 -9 42 -9z"/>
<path d="M702 5060 c-15 -6 -22 -17 -20 -27 2 -14 17 -20 65 -25 133 -14 156
-60 84 -166 -37 -55 -85 -107 -125 -135 -31 -23 -13 -45 41 -52 113 -14 212
-37 261 -61 55 -27 59 -38 15 -49 -15 -3 -44 -22 -65 -41 -42 -37 -50 -39 -97
-23 -35 12 -111 -2 -111 -21 0 -5 20 -26 45 -47 34 -28 45 -44 45 -66 0 -22 4
-28 15 -23 20 7 19 -5 -8 -72 -19 -46 -23 -70 -19 -121 4 -52 2 -65 -12 -73
-20 -11 -20 -44 -1 -78 18 -32 21 -245 3 -287 -6 -15 -14 -84 -17 -152 -5 -98
-9 -125 -21 -129 -8 -3 -26 -19 -40 -35 -57 -68 -98 -102 -155 -128 -71 -32
-105 -63 -87 -81 19 -19 88 4 182 62 46 27 91 50 101 50 10 0 53 -11 95 -24
60 -19 82 -22 103 -15 29 12 141 3 178 -14 13 -6 22 -16 19 -23 -3 -8 11 -14
42 -19 62 -9 142 -50 142 -73 0 -29 38 -81 65 -88 20 -5 25 -12 25 -36 0 -17
-7 -46 -16 -65 -13 -25 -14 -37 -5 -46 6 -6 11 -23 11 -39 0 -62 57 8 100 124
19 52 20 59 6 80 -11 17 -15 49 -15 115 l1 92 44 45 c24 26 53 46 64 46 26 0
120 40 120 50 0 5 -19 16 -43 25 -24 9 -49 26 -56 37 -13 21 -19 207 -7 227 3
5 1 33 -4 63 -10 55 -5 81 31 154 8 16 7 29 -4 50 -11 23 -14 76 -15 243 l-1
214 45 78 c24 43 44 80 44 82 0 15 -434 187 -472 187 -11 0 -36 13 -54 30 -19
16 -46 33 -59 36 -14 3 -25 11 -25 18 -1 6 -21 24 -46 40 -46 29 -104 97 -104
122 0 7 -26 26 -57 40 -63 30 -187 43 -231 24z m301 -215 c15 -13 27 -30 27
-38 0 -21 30 -44 74 -56 50 -13 177 -138 155 -152 -8 -5 -17 -9 -21 -9 -4 0
-52 41 -108 91 -78 70 -104 88 -111 78 -11 -17 -12 -39 -1 -39 4 0 41 -32 82
-70 60 -55 71 -69 53 -70 -12 0 -24 8 -27 18 -3 10 -34 37 -69 60 -98 66 -168
134 -157 152 8 12 14 10 38 -13 27 -26 82 -38 82 -17 0 6 -4 10 -10 10 -5 0
-10 7 -10 15 0 8 -5 15 -12 15 -14 0 -48 30 -48 42 0 16 36 7 63 -17z m304
-351 c15 -3 25 -14 29 -32 4 -15 12 -34 19 -42 7 -9 15 -63 19 -132 6 -100 5
-120 -10 -142 -24 -38 -25 -129 -1 -198 18 -54 19 -61 3 -151 -20 -117 -20
-163 -1 -217 8 -23 15 -53 15 -66 0 -21 -5 -24 -34 -24 -18 0 -39 -7 -46 -15
-18 -22 -49 -18 -95 10 -22 13 -48 25 -58 25 -17 0 -18 11 -16 163 2 108 -2
175 -10 202 -10 32 -10 56 0 120 7 44 13 118 14 165 2 60 10 110 28 168 22 70
25 90 17 125 -5 23 -10 45 -10 50 0 7 87 1 137 -9z"/>
<path d="M2326 4575 c-11 -8 -29 -12 -40 -9 -28 7 -152 -62 -178 -99 -11 -15
-42 -39 -69 -52 -59 -30 -119 -82 -119 -102 0 -25 -51 -78 -71 -75 -22 4 -26
-16 -4 -24 11 -5 12 -11 4 -25 -18 -35 32 -227 59 -222 6 2 14 -7 16 -20 3
-12 10 -46 17 -76 13 -58 7 -158 -16 -279 -14 -71 -14 -73 10 -109 14 -20 25
-46 25 -58 0 -12 5 -48 12 -80 11 -56 12 -58 63 -80 28 -13 75 -30 104 -39 29
-8 70 -30 92 -47 36 -28 51 -33 137 -41 l97 -10 30 35 c17 19 44 37 62 41 18
4 53 25 79 46 25 21 66 44 91 50 34 10 51 23 74 56 38 55 85 89 121 86 22 -2
37 7 68 40 46 50 50 68 14 68 -14 0 -34 5 -46 11 -29 15 -74 -6 -86 -40 -6
-17 -28 -38 -54 -53 -52 -31 -158 -64 -167 -52 -3 5 -33 10 -66 10 -156 4
-223 13 -310 43 -49 16 -89 34 -88 38 2 11 171 319 200 365 16 26 42 48 83 68
53 27 67 41 116 115 32 48 70 93 90 105 19 12 34 24 34 26 0 31 -134 162 -204
199 -20 11 -49 44 -74 84 -23 36 -52 78 -64 93 -21 25 -25 26 -42 13z m-27
-388 c43 -9 60 -32 61 -79 0 -27 -5 -40 -20 -48 -23 -12 -40 -41 -46 -77 -6
-32 -22 -63 -33 -63 -4 0 -8 15 -8 33 0 59 -21 246 -29 259 -6 9 0 8 16 -3 14
-9 40 -19 59 -22z"/>
<path d="M8895 4554 c-27 -19 -112 -67 -187 -106 -148 -77 -199 -118 -182
-145 7 -11 5 -32 -9 -71 -10 -31 -21 -93 -24 -139 -5 -71 -3 -86 12 -103 39
-44 53 -211 29 -351 -9 -57 -18 -120 -18 -139 -1 -31 -5 -36 -44 -50 -48 -17
-92 -54 -92 -78 0 -13 12 -14 83 -9 79 6 111 0 113 -23 1 -5 2 -18 3 -29 1
-20 65 -55 161 -86 30 -10 75 -33 101 -51 38 -28 56 -34 96 -34 33 0 55 -5 63
-15 8 -9 17 -12 24 -7 6 5 22 12 36 15 15 4 37 25 55 52 33 49 33 49 119 64
116 21 282 6 426 -39 36 -11 71 -20 78 -20 7 0 29 33 49 74 30 61 42 75 65 80
16 3 28 12 28 21 0 8 5 15 10 15 24 0 7 28 -19 33 -17 4 -35 16 -42 29 -16 32
-60 78 -75 78 -16 0 -22 17 -36 114 l-12 84 33 71 c34 75 51 165 56 298 3 79
5 83 37 111 49 43 71 52 127 52 49 0 51 -1 51 -27 0 -21 9 -34 34 -51 29 -20
33 -28 27 -45 -10 -25 -23 -130 -26 -202 -1 -27 -9 -69 -18 -91 -10 -27 -17
-77 -18 -145 -1 -69 -8 -124 -20 -164 -16 -53 -17 -62 -3 -82 8 -13 23 -23 34
-23 11 0 40 -18 64 -40 33 -31 42 -46 39 -64 -4 -20 0 -24 34 -30 26 -4 54
-21 88 -53 28 -25 40 -41 28 -34 -17 8 -28 9 -43 1 -25 -13 -25 -32 -1 -54 21
-19 48 -12 56 15 9 28 26 19 52 -27 18 -31 23 -55 23 -116 0 -69 2 -79 22 -89
25 -13 34 -4 72 71 39 77 50 118 35 137 -9 10 -14 48 -15 103 -1 49 -5 98 -9
110 -4 14 -1 28 10 40 16 18 15 21 -21 59 -20 23 -44 41 -53 41 -11 0 -10 3 5
15 16 12 17 16 4 24 -8 5 -18 7 -22 5 -4 -3 -8 9 -8 26 0 23 -5 33 -19 37 -17
4 -18 12 -14 66 3 34 12 89 20 122 26 100 26 119 3 171 -34 75 -27 228 12 264
20 18 21 18 61 -11 29 -21 48 -28 66 -24 16 3 45 -4 76 -18 l49 -23 -3 -50
c-2 -36 5 -64 23 -104 34 -72 33 -99 -4 -133 -27 -26 -30 -35 -30 -87 0 -31 6
-76 14 -98 13 -35 13 -41 0 -46 -8 -3 -14 -19 -14 -37 0 -22 -5 -32 -20 -36
-23 -6 -25 -14 -8 -31 9 -9 7 -12 -10 -12 -26 0 -29 -15 -5 -24 15 -6 15 -8 3
-17 -12 -8 -10 -14 15 -34 17 -13 37 -32 45 -40 51 -53 72 -73 101 -94 17 -14
44 -44 59 -68 15 -23 30 -40 33 -36 3 3 16 -11 28 -31 32 -55 72 -42 50 17 -9
23 -7 28 19 43 38 23 54 55 48 96 -4 27 1 41 29 75 l35 42 -36 47 c-20 26 -36
50 -36 53 0 4 -13 15 -29 24 -46 27 -51 87 -16 166 24 52 27 69 22 128 -3 37
-17 117 -30 176 -23 105 -23 109 -5 120 10 7 18 20 18 29 0 10 1 18 3 18 1 0
28 11 61 24 45 18 67 35 95 72 26 34 57 59 112 88 88 47 109 63 109 82 0 26
-66 15 -137 -22 -93 -50 -173 -59 -260 -29 -35 13 -80 33 -101 47 -20 13 -59
32 -85 42 -31 11 -52 27 -59 42 -6 13 -14 24 -18 24 -3 0 -46 -47 -95 -104
l-89 -104 -46 23 c-25 12 -65 30 -91 39 -30 11 -57 32 -80 61 -21 27 -48 48
-73 56 -38 13 -39 12 -65 -20 -14 -18 -47 -41 -71 -52 -25 -11 -64 -41 -87
-67 -23 -26 -43 -45 -45 -42 -2 3 -16 22 -31 42 -16 22 -39 39 -57 43 -26 6
-68 38 -145 110 -11 11 -32 21 -45 22 -14 0 -52 4 -86 8 -48 6 -67 4 -94 -10
-19 -10 -64 -20 -100 -23 -42 -3 -73 -11 -89 -23 -19 -15 -41 -19 -110 -19
-99 0 -154 16 -184 53 l-22 26 -50 -35z m505 -135 c35 -5 66 -12 68 -14 7 -7
-36 -69 -72 -104 -42 -41 -45 -51 -13 -51 50 0 62 -11 86 -73 37 -96 34 -151
-18 -290 l-44 -117 22 -56 c11 -31 21 -75 21 -99 0 -49 -43 -145 -65 -145 -7
0 -15 -5 -17 -12 -3 -7 -32 -13 -74 -15 -38 -3 -79 -9 -91 -15 -15 -7 -40 -7
-88 1 -37 7 -80 9 -94 6 -27 -6 -239 58 -234 70 17 44 101 180 119 192 17 11
23 21 19 34 -7 21 29 89 107 207 43 64 57 76 115 105 79 38 95 57 70 85 -11
12 -17 35 -17 65 0 25 -5 49 -11 52 -7 5 -2 16 12 31 12 13 21 25 18 27 -2 2
-19 15 -36 29 l-32 26 42 23 c40 21 111 47 132 48 6 1 39 -4 75 -10z m-497
-233 c20 -4 37 -11 37 -17 0 -5 11 -14 25 -19 22 -8 24 -13 15 -29 -5 -11 -10
-33 -10 -49 0 -23 -5 -31 -25 -36 -19 -5 -33 -24 -59 -81 -38 -82 -50 -95 -34
-39 6 24 6 58 -1 102 -5 37 -12 98 -15 136 -5 64 -4 68 12 54 9 -9 34 -18 55
-22z"/>
<path d="M10895 3035 c-30 -30 -32 -64 -4 -99 24 -30 58 -34 88 -8 32 26 37
72 11 105 -27 34 -63 35 -95 2z"/>
<path d="M6198 2999 c-53 -20 -27 -59 39 -59 24 0 43 -4 43 -9 0 -5 9 -11 20
-14 24 -6 25 -28 5 -68 -9 -16 -14 -33 -11 -38 3 -4 -6 -24 -19 -43 -20 -30
-31 -36 -73 -42 -54 -7 -81 -1 -99 23 -14 19 -129 20 -185 2 -45 -15 -76 -47
-60 -63 8 -8 20 -7 44 5 18 8 49 18 69 22 33 6 40 3 83 -38 51 -50 53 -58 30
-112 -8 -21 -13 -47 -9 -59 23 -75 23 -90 4 -153 -17 -55 -19 -80 -13 -181 5
-93 3 -133 -10 -190 -14 -62 -14 -76 -2 -105 7 -18 21 -63 30 -99 16 -63 16
-67 -4 -113 -16 -38 -18 -54 -10 -88 12 -51 18 -287 8 -287 -5 0 -8 -9 -8 -20
0 -12 -9 -39 -20 -61 -17 -32 -25 -39 -40 -34 -14 4 -20 2 -20 -9 0 -14 93
-56 123 -56 7 0 34 -13 60 -30 26 -16 66 -39 90 -51 23 -12 66 -44 96 -70 72
-65 101 -73 179 -55 34 8 70 12 80 9 14 -3 23 5 36 34 15 34 25 41 83 62 36
13 97 48 137 77 l71 53 0 158 c-1 87 -5 184 -9 216 -8 54 -7 59 12 63 16 5 21
17 27 62 4 32 14 70 22 85 8 15 13 36 11 45 -1 9 1 22 5 28 9 16 -3 75 -14 68
-5 -3 -8 44 -6 108 2 90 6 120 20 142 10 15 17 29 15 31 -2 1 -19 10 -38 20
-19 10 -58 38 -86 62 l-52 45 20 31 c11 18 33 53 48 79 22 36 46 56 102 88 40
23 88 51 106 62 27 17 38 19 58 10 16 -8 32 -8 50 -2 17 7 46 6 90 -2 46 -8
73 -8 99 -1 19 6 37 8 40 3 12 -20 57 -20 85 0 39 28 78 25 131 -8 68 -44 104
-102 104 -171 l0 -56 -35 4 c-19 1 -51 11 -70 20 -44 22 -178 21 -212 -1 -13
-8 -46 -22 -74 -32 -28 -9 -64 -30 -79 -46 -25 -26 -36 -30 -86 -30 -49 0 -59
-3 -73 -25 -9 -14 -23 -25 -31 -25 -17 0 -20 -16 -5 -25 15 -9 12 -25 -5 -25
-34 0 -54 -41 -54 -106 1 -66 24 -114 54 -114 11 0 12 -6 5 -26 -8 -19 -5 -34
10 -64 18 -35 19 -54 15 -220 -2 -111 -8 -187 -14 -193 -6 -6 -11 -19 -11 -29
0 -10 -9 -27 -21 -39 l-20 -20 71 -85 c60 -71 75 -83 94 -78 17 4 32 -2 52
-21 16 -15 56 -43 89 -62 33 -19 85 -56 115 -83 67 -58 168 -107 235 -116 l50
-6 14 63 c27 119 86 199 241 322 l35 28 -22 18 c-12 10 -20 21 -17 24 3 3 -4
19 -17 36 -20 27 -21 37 -15 108 3 47 11 82 19 88 20 14 37 50 37 75 0 13 -15
36 -35 54 l-35 32 19 52 c19 53 19 60 -9 137 -4 11 -4 43 0 70 4 28 6 53 3 58
-2 4 2 14 11 22 19 19 55 114 68 182 18 90 -24 156 -166 263 -52 39 -98 80
-101 90 -10 31 -63 79 -119 107 -28 14 -59 32 -69 41 -18 16 -72 27 -179 38
-51 6 -60 4 -100 -24 -42 -29 -124 -62 -153 -62 -29 0 -212 -102 -263 -146
-29 -26 -64 -69 -79 -97 -14 -28 -34 -63 -46 -78 l-20 -28 -59 30 -59 30 -102
-85 c-82 -69 -109 -86 -145 -91 -24 -4 -45 -5 -47 -3 -2 2 0 21 5 42 5 21 4
64 -1 99 -13 92 -11 162 7 224 12 41 14 74 10 123 -4 36 -3 77 2 91 5 13 6 52
3 86 -5 50 -12 68 -35 92 -16 17 -39 31 -50 31 -12 0 -37 2 -56 4 -19 3 -47 1
-62 -5z m1469 -910 c23 -9 29 -28 40 -134 9 -95 9 -369 -1 -383 -6 -8 -4 -27
4 -51 11 -34 9 -48 -15 -131 -14 -51 -38 -116 -52 -144 l-25 -50 -63 69 c-86
96 -100 159 -71 325 14 73 13 76 -11 124 l-25 49 27 56 c21 45 25 65 21 101
-3 25 0 71 6 102 11 51 15 58 47 71 35 15 72 13 118 -4z m-1015 -12 c9 -7 16
-20 16 -28 -3 -43 3 -61 17 -55 22 8 20 -57 -5 -153 -15 -60 -17 -86 -10 -112
14 -47 12 -96 -5 -153 -13 -43 -13 -53 1 -96 15 -46 15 -52 -5 -105 -12 -31
-21 -69 -21 -85 0 -16 -5 -32 -11 -36 -6 -3 -9 -15 -6 -25 3 -11 0 -19 -7 -19
-7 0 -21 -9 -31 -20 -24 -27 -88 -27 -122 0 -14 11 -36 20 -48 20 -22 0 -23 4
-30 117 -7 99 -5 124 11 172 23 72 32 330 14 407 -8 32 -10 73 -6 108 l7 56
52 1 c29 1 66 5 82 9 47 12 88 11 107 -3z"/>
<path d="M8579 2949 c-17 -34 -41 -72 -55 -86 -17 -17 -24 -35 -24 -61 0 -60
-10 -82 -35 -82 -33 0 -55 -10 -55 -25 0 -7 -9 -15 -20 -18 -11 -3 -20 -1 -20
4 0 6 -19 19 -43 29 -24 11 -52 28 -62 40 -10 11 -26 20 -37 20 -15 0 -18 -8
-18 -42 0 -23 7 -49 15 -58 8 -9 18 -45 21 -81 4 -35 13 -76 20 -91 8 -15 14
-50 14 -78 0 -43 -3 -53 -20 -57 -11 -3 -20 -11 -20 -18 0 -7 -11 -24 -25 -39
-14 -15 -25 -38 -25 -51 0 -13 -9 -30 -21 -39 l-21 -14 21 -21 c12 -12 21 -25
21 -30 0 -6 15 -11 33 -13 l32 -3 3 -82 c2 -55 -2 -93 -12 -117 -10 -25 -12
-45 -5 -73 5 -21 9 -87 10 -148 0 -60 4 -121 8 -135 4 -14 0 -52 -10 -89 -17
-62 -17 -65 4 -118 15 -41 17 -57 9 -62 -18 -11 -51 -81 -46 -96 3 -7 23 -27
44 -44 22 -17 59 -59 84 -94 25 -34 58 -68 74 -75 17 -7 42 -24 56 -37 15 -14
31 -25 36 -25 17 0 73 76 89 121 14 37 21 45 46 47 18 2 44 19 67 43 70 72 75
70 216 -75 l124 -128 46 7 c26 4 67 19 92 34 81 48 159 83 170 76 6 -3 8 -10
5 -15 -3 -4 6 -11 20 -14 29 -7 115 -90 115 -111 0 -8 6 -15 14 -15 7 0 20 -7
27 -16 7 -9 23 -20 36 -25 28 -10 44 -66 37 -132 -4 -47 9 -77 35 -77 12 0 63
96 85 160 12 35 12 45 0 68 -9 17 -14 59 -14 112 0 54 -5 95 -14 112 -18 34
-6 43 31 25 15 -8 62 -25 103 -37 99 -29 173 -68 238 -124 30 -25 60 -46 67
-46 16 0 55 47 55 65 0 7 8 19 17 26 9 8 29 34 45 59 26 41 82 80 115 80 30 0
10 29 -32 44 -25 10 -45 22 -45 26 0 16 -61 80 -76 80 -7 0 -16 10 -19 23 -33
148 -33 177 5 260 17 37 30 80 30 97 0 17 7 63 16 101 9 39 14 84 12 100 -5
30 6 39 46 39 13 0 31 12 45 30 12 17 44 41 71 54 l50 24 0 -27 c0 -19 9 -32
31 -45 25 -15 29 -23 25 -42 -4 -14 -11 -58 -16 -99 -8 -59 -6 -79 5 -102 20
-37 19 -42 -11 -86 -22 -34 -24 -42 -14 -72 16 -48 6 -176 -14 -191 -9 -6 -16
-25 -16 -41 0 -17 -7 -36 -15 -43 -21 -17 -18 -21 40 -67 28 -22 101 -86 163
-142 l113 -103 47 43 c26 23 54 60 62 80 9 21 28 51 43 67 15 15 27 33 27 39
0 6 -20 29 -45 52 -25 23 -45 48 -45 56 0 8 -9 37 -20 65 -12 30 -20 74 -20
107 0 56 25 169 41 188 16 17 9 51 -15 74 -32 30 -39 78 -26 171 12 92 37 120
104 120 23 0 47 5 53 11 13 13 53 -10 94 -53 24 -24 27 -38 33 -120 9 -144 6
-226 -10 -290 -14 -53 -14 -63 1 -108 15 -45 15 -51 1 -66 -9 -9 -16 -32 -16
-55 0 -24 -4 -38 -10 -34 -5 3 -10 1 -10 -4 0 -6 -7 -11 -15 -11 -17 0 -20
-16 -5 -25 6 -4 8 -15 5 -25 -5 -14 4 -25 34 -44 22 -14 42 -34 45 -44 4 -11
31 -36 61 -55 33 -22 64 -54 80 -82 15 -25 31 -42 36 -39 5 3 27 32 49 64 22
32 59 74 83 94 24 19 49 46 56 59 12 22 9 30 -24 78 -20 30 -50 62 -66 72 -26
17 -29 25 -29 69 0 35 8 65 26 98 31 58 30 104 -9 285 l-26 120 21 16 c12 9
18 20 15 26 -3 5 16 30 42 55 37 36 52 61 72 118 13 40 34 82 46 94 20 18 23
31 23 106 0 120 -37 195 -159 323 -61 64 -95 83 -158 90 -30 3 -72 18 -97 32
-54 31 -86 23 -86 -23 0 -43 12 -52 96 -73 97 -25 143 -51 211 -119 57 -57
113 -157 113 -201 0 -53 -17 -79 -51 -79 -22 0 -41 -11 -71 -40 -22 -22 -46
-37 -52 -33 -6 3 -29 19 -52 34 -22 15 -53 31 -68 35 -16 4 -44 23 -63 42 -33
33 -36 34 -46 17 -6 -11 -44 -58 -85 -105 -42 -47 -76 -86 -77 -87 0 -1 -41
15 -89 35 -79 33 -95 44 -145 103 -69 81 -106 104 -144 90 -15 -6 -32 -21 -37
-33 l-9 -23 0 23 c-1 18 -6 23 -23 20 -17 -2 -24 -11 -26 -31 -2 -16 -10 -31
-18 -34 -8 -3 -33 -23 -54 -43 -32 -31 -40 -46 -40 -74 0 -43 -16 -55 -31 -23
-7 15 -23 27 -39 31 -39 7 -63 47 -90 148 -23 87 -39 109 -60 82 -7 -8 -10
-14 -6 -14 19 0 -41 -85 -90 -127 -77 -65 -80 -69 -128 -143 -23 -36 -52 -69
-64 -75 -29 -13 -28 -25 3 -25 49 0 70 -19 93 -83 27 -77 28 -154 1 -227 -11
-30 -29 -82 -41 -115 l-21 -59 21 -61 c15 -42 20 -72 16 -101 l-6 -41 -50 8
c-53 9 -121 3 -151 -13 -12 -6 -19 -5 -22 4 -12 33 -19 179 -12 228 5 30 10
143 11 250 2 187 12 260 36 260 9 0 45 99 39 104 -2 2 -29 14 -59 28 -45 21
-60 34 -85 77 l-30 52 -53 -5 c-40 -3 -54 -1 -59 10 -8 23 -23 16 -23 -10 0
-14 -8 -31 -19 -38 -10 -7 -26 -28 -35 -45 -9 -18 -20 -32 -24 -30 -5 1 -23
-13 -42 -31 -23 -23 -30 -36 -21 -41 7 -5 -1 -14 -24 -27 -19 -10 -35 -24 -35
-31 0 -17 23 -38 57 -52 33 -13 53 -57 53 -112 0 -19 7 -66 15 -104 11 -53 14
-110 9 -240 -3 -93 -1 -192 3 -220 11 -67 -3 -112 -40 -124 -15 -6 -39 -24
-54 -41 l-26 -31 -17 29 c-10 16 -29 32 -42 35 -49 13 -66 54 -73 178 -4 63
-11 138 -16 168 -7 41 -5 66 7 108 15 51 15 60 -5 158 -25 125 -26 151 -5 159
9 3 14 13 11 21 -7 16 55 75 78 75 8 0 15 2 15 5 0 6 -85 91 -183 183 -64 60
-81 71 -93 62 -8 -7 -14 -18 -14 -25 0 -7 -29 -34 -64 -59 -46 -32 -74 -62
-96 -101 -17 -30 -36 -55 -41 -55 -16 0 -10 -30 9 -37 9 -3 32 -21 50 -39 27
-28 32 -40 32 -81 -1 -26 -9 -73 -20 -103 -10 -30 -15 -59 -10 -65 19 -23 78
-214 73 -235 -4 -13 -8 -17 -13 -11 -10 17 -40 2 -40 -19 0 -28 -11 -50 -24
-50 -22 0 -84 -75 -91 -110 -4 -19 -20 -50 -36 -68 -16 -18 -29 -40 -29 -50 0
-12 -9 -17 -30 -18 -22 -1 -30 3 -30 16 0 10 -6 23 -14 29 -26 22 -30 121 -8
197 11 38 23 88 27 112 4 26 12 42 21 42 17 0 19 20 2 20 -15 0 -58 124 -58
165 0 16 5 54 11 84 9 47 8 75 -8 170 -17 100 -18 123 -7 180 7 36 17 78 22
91 7 17 6 44 0 77 -9 47 -7 58 25 145 46 122 52 158 36 205 -16 48 -14 72 12
144 18 48 19 62 9 74 -20 24 -28 18 -61 -46z m2694 -1559 c20 0 27 -5 27 -19
0 -10 17 -34 38 -52 20 -18 45 -43 54 -57 16 -25 16 -26 -40 -82 l-56 -57 -39
31 c-70 55 -121 118 -107 132 5 5 11 25 13 44 2 19 9 45 15 57 7 12 12 30 12
39 0 15 5 13 28 -9 16 -16 39 -27 55 -27z"/>
<path d="M4475 2868 c-46 -25 -95 -82 -95 -111 0 -27 50 -157 60 -157 3 0 10
10 15 22 7 15 30 29 70 43 59 20 61 20 120 2 33 -10 70 -25 83 -33 29 -19 28
-5 -4 60 -39 77 -88 131 -146 160 -57 29 -73 31 -103 14z"/>
<path d="M9159 2851 c-21 -17 -22 -21 -9 -37 14 -18 14 -18 -2 -5 -10 7 -18
22 -18 33 0 26 -42 21 -46 -5 -5 -33 -14 -48 -24 -42 -6 4 -26 -7 -46 -24 -19
-17 -38 -31 -43 -31 -5 0 -11 -17 -15 -39 -4 -26 -14 -44 -31 -55 -29 -19 -59
-72 -51 -91 7 -19 -12 -32 -57 -40 -48 -9 -93 -45 -84 -68 5 -14 22 -17 96
-17 82 0 90 2 104 23 8 13 37 31 64 41 90 32 115 47 150 86 31 34 38 37 60 29
35 -13 78 -11 118 5 18 8 59 18 91 22 l57 7 -15 -22 c-20 -29 -12 -60 19 -67
28 -7 67 22 58 44 -3 7 1 20 9 28 16 16 57 5 89 -23 29 -27 30 -8 3 46 -14 28
-26 56 -26 64 0 8 -25 27 -56 42 -48 24 -69 29 -138 29 -45 1 -91 -3 -103 -7
-18 -7 -23 -5 -23 9 0 22 -66 84 -90 84 -10 0 -28 -8 -41 -19z"/>
<path d="M1890 2764 c0 -9 16 -31 36 -48 85 -73 123 -116 141 -164 14 -40 29
-57 68 -84 27 -18 62 -52 77 -74 26 -39 101 -84 140 -84 7 0 24 -12 38 -27 27
-29 78 -53 110 -53 24 0 90 -62 90 -84 0 -22 90 -47 187 -53 70 -5 88 -2 127
17 25 12 50 19 55 16 5 -3 31 -1 58 5 40 9 54 9 77 -3 l28 -15 -132 -103 c-88
-68 -136 -113 -145 -134 -19 -44 -26 -48 -47 -29 -17 15 -19 15 -38 -2 -11
-10 -20 -24 -20 -31 0 -7 -11 -24 -25 -38 -32 -32 -33 -64 -1 -72 13 -3 52 -1
86 4 51 7 65 6 80 -7 17 -15 70 -131 70 -155 0 -5 14 -25 32 -43 23 -24 33
-46 39 -85 4 -29 11 -67 14 -84 5 -24 2 -37 -17 -58 -22 -26 -30 -28 -106 -30
-48 -1 -87 -7 -94 -14 -7 -7 -33 -12 -59 -12 -26 0 -63 -7 -83 -15 -20 -9 -52
-15 -70 -13 -19 1 -41 -4 -50 -11 -14 -12 -24 -10 -64 11 -26 14 -64 31 -84
38 -21 6 -38 16 -38 21 0 5 -9 9 -20 9 -13 0 -37 22 -65 58 -24 31 -66 76 -93
98 -33 29 -52 55 -60 82 -15 51 -57 102 -83 102 -21 0 -21 0 3 -95 17 -70 59
-133 129 -195 40 -36 72 -73 78 -93 9 -27 24 -38 89 -69 85 -41 186 -78 213
-78 16 0 15 -5 -8 -45 -17 -32 -23 -53 -18 -73 4 -20 1 -33 -10 -42 -32 -26
-55 -88 -55 -144 0 -46 5 -61 28 -88 16 -18 34 -46 41 -63 6 -16 49 -69 94
-117 73 -76 89 -88 137 -101 184 -50 196 -52 304 -50 95 1 114 4 155 26 25 14
69 31 96 38 28 7 61 20 75 29 60 41 189 89 281 104 129 21 551 23 591 2 14 -8
44 -17 66 -21 22 -3 48 -13 59 -20 10 -8 31 -15 47 -15 31 0 176 -35 211 -50
11 -5 39 -15 63 -21 46 -13 74 -42 65 -65 -3 -8 0 -14 6 -14 6 0 2 -14 -9 -32
-11 -18 -20 -44 -20 -57 l0 -23 128 7 c128 7 278 9 341 3 19 -2 36 2 38 8 2 7
-44 59 -103 117 -75 74 -121 111 -158 127 -28 12 -68 30 -88 41 -20 10 -43 19
-51 19 -22 0 -47 -34 -47 -63 0 -25 -3 -27 -27 -21 -16 3 -66 21 -113 40 -327
127 -463 163 -656 171 -200 8 -436 -18 -514 -58 -30 -15 -81 -32 -114 -38 -58
-11 -91 -26 -192 -90 -53 -34 -107 -47 -147 -37 -14 3 -48 27 -76 52 -41 37
-61 48 -96 52 -34 3 -56 15 -95 48 -29 24 -55 44 -58 44 -21 0 -44 70 -44 129
0 102 35 125 207 136 l90 6 30 -48 30 -48 70 -5 70 -5 0 -100 0 -100 25 3 c14
1 36 11 50 22 14 12 39 30 56 41 18 11 38 34 45 52 19 46 133 154 172 163 18
3 52 23 77 43 25 20 89 69 142 109 112 84 171 146 212 223 16 30 49 71 73 93
50 44 103 117 103 141 0 10 -11 30 -25 47 -27 32 -30 52 -14 95 10 25 18 138
22 308 2 42 6 62 17 67 19 8 157 10 186 2 24 -6 26 -15 49 -179 13 -95 13
-103 -7 -157 -19 -54 -19 -58 -3 -113 l16 -57 -27 -39 c-15 -21 -30 -39 -34
-39 -5 0 -6 -17 -3 -39 4 -31 1 -43 -16 -60 -12 -12 -24 -35 -28 -51 -3 -16
-9 -27 -14 -24 -15 9 -10 -8 7 -27 17 -19 22 -14 -61 -64 -13 -8 -32 -29 -41
-46 l-16 -32 59 5 c32 3 66 9 76 13 13 5 16 3 12 -8 -5 -11 5 -16 41 -22 36
-5 54 -15 85 -47 21 -22 41 -49 44 -59 4 -11 19 -26 35 -34 16 -8 34 -24 40
-35 6 -11 15 -18 21 -15 16 10 10 -29 -11 -69 -17 -34 -17 -40 -5 -53 8 -8 15
-23 15 -34 0 -52 46 2 90 107 28 67 29 76 15 90 -23 23 -19 104 10 190 27 80
67 152 90 161 22 8 18 21 -7 29 -22 7 -21 8 8 16 21 5 34 16 38 31 3 13 25 38
50 55 50 36 56 38 56 17 0 -8 11 -49 25 -92 21 -66 22 -79 10 -86 -8 -4 -15
-15 -15 -22 0 -8 -6 -15 -12 -15 -14 -1 -75 -47 -68 -52 3 -2 30 -16 60 -31
30 -15 77 -43 104 -62 26 -19 60 -35 75 -35 15 0 46 -14 68 -30 36 -27 47 -30
84 -24 24 4 54 13 68 21 14 7 31 13 37 13 6 0 19 10 30 21 10 12 38 30 61 40
23 10 44 27 48 38 3 12 10 21 14 21 13 0 102 -60 165 -111 33 -27 65 -49 71
-49 6 0 29 -18 50 -41 54 -55 123 -104 167 -118 57 -19 142 -68 182 -106 33
-31 44 -35 89 -35 29 0 70 -7 92 -15 47 -17 145 -19 198 -4 21 5 52 23 70 38
36 32 79 55 119 65 15 3 35 20 46 38 32 51 71 83 142 117 66 32 90 53 90 79 0
28 -81 3 -175 -53 -175 -106 -366 -123 -654 -59 -70 16 -77 20 -142 87 -54 54
-69 77 -69 99 0 16 -4 38 -10 48 -6 12 -6 29 2 50 8 24 8 34 -1 39 -9 6 -8 11
4 21 21 17 19 25 -8 37 -15 7 -29 7 -40 1 -13 -7 -17 -5 -17 7 0 8 -9 15 -20
15 -16 0 -20 7 -21 38 0 20 -6 71 -13 112 -9 50 -11 91 -5 125 4 28 16 93 25
146 15 86 15 104 2 183 -14 88 -14 88 8 103 37 24 61 186 31 211 -7 6 -39 20
-71 33 -45 16 -79 40 -141 100 -77 74 -84 79 -137 85 -47 5 -61 3 -85 -13 -53
-38 -113 -64 -186 -80 -94 -21 -145 -47 -158 -81 -6 -15 -30 -61 -55 -103 -24
-42 -44 -81 -44 -88 0 -7 9 -24 19 -37 16 -20 18 -35 14 -79 -5 -50 -4 -55 23
-79 l29 -25 -56 -1 c-31 0 -74 -7 -95 -16 -21 -9 -52 -14 -69 -11 -30 5 -75
-16 -62 -29 4 -4 2 -13 -4 -21 -9 -10 -6 -17 10 -30 l22 -18 -34 -37 c-27 -30
-32 -42 -29 -72 3 -28 -2 -43 -23 -68 -22 -26 -26 -39 -22 -69 5 -37 -13 -69
-39 -69 -32 0 -38 212 -9 300 16 47 16 53 0 101 -24 70 -8 181 30 211 14 11
25 30 25 43 0 14 7 25 20 28 32 8 24 19 -45 65 -44 28 -80 63 -110 105 -24 34
-60 81 -80 105 -19 24 -35 50 -35 58 0 8 -4 14 -9 14 -13 0 -82 -85 -121 -147
-31 -52 -32 -53 -81 -53 -57 0 -113 -21 -149 -55 -14 -13 -42 -31 -62 -39 -34
-15 -37 -15 -43 3 -3 10 -14 26 -25 36 -11 10 -20 27 -20 38 0 11 -15 45 -32
76 -30 51 -32 63 -30 130 3 121 -33 149 -123 96 -23 -14 -76 -32 -116 -39 -69
-14 -74 -13 -97 5 -29 23 -53 24 -90 5 -26 -13 -33 -12 -97 17 -62 27 -80 31
-165 31 -63 0 -115 -6 -155 -18 -48 -14 -107 -19 -295 -22 -327 -6 -316 -7
-404 16 -126 32 -219 84 -311 171 -44 42 -90 81 -102 88 -32 16 -63 14 -63 -5z
m3516 -600 c44 -9 89 -22 100 -29 25 -16 35 -80 27 -162 l-6 -52 -56 -17 c-83
-25 -143 -28 -225 -13 -64 11 -76 16 -87 38 -18 40 -19 81 -1 139 18 60 33 76
88 96 51 19 67 19 160 0z m-1953 -46 c24 1 21 -17 -13 -68 -40 -61 -39 -97 6
-156 66 -86 73 -127 32 -186 -10 -14 -21 -40 -24 -58 -5 -24 -11 -29 -23 -24
-9 3 -26 9 -38 11 -16 4 -22 15 -28 51 -9 64 -41 128 -76 153 -60 42 -80 124
-54 218 11 36 24 62 34 65 9 3 50 2 91 -1 41 -3 83 -5 93 -5z m145 -87 c12
-31 36 -81 54 -111 22 -38 31 -66 29 -90 -1 -19 7 -64 18 -99 18 -57 18 -67 5
-85 -7 -11 -14 -30 -14 -42 0 -26 36 -74 56 -74 22 0 17 -62 -10 -111 -13 -24
-34 -85 -46 -135 -26 -109 -47 -148 -89 -162 -28 -10 -31 -9 -31 9 0 11 9 45
20 76 l20 57 -41 84 c-38 79 -41 90 -44 190 -4 97 -2 112 20 161 36 79 33 123
-15 201 -43 70 -46 84 -29 157 l12 49 32 -10 c26 -8 35 -20 53 -65z m1896
-269 c-24 -54 -24 -61 -13 -125 6 -38 8 -93 4 -123 -6 -46 -3 -62 20 -108 15
-30 24 -59 21 -64 -3 -6 -18 -13 -33 -17 -16 -3 -38 -16 -50 -27 -19 -18 -27
-19 -69 -10 -26 6 -53 8 -61 5 -15 -6 -48 28 -67 70 -14 30 -15 22 28 194 l15
58 -35 41 c-19 24 -34 47 -34 52 0 6 14 15 32 21 18 6 41 20 53 31 21 20 182
69 202 62 8 -3 5 -20 -13 -60z m-2000 -429 c34 -70 35 -75 23 -123 -11 -45
-14 -50 -39 -50 -15 0 -46 -7 -68 -16 l-41 -17 -39 38 c-27 26 -48 38 -69 39
-43 1 -41 27 9 126 22 44 40 86 40 94 0 7 30 38 68 68 l67 54 7 -70 c6 -48 19
-94 42 -143z"/>
<path d="M990 2641 c-43 -24 -74 -50 -93 -79 -16 -24 -62 -67 -101 -97 -39
-29 -85 -68 -103 -86 -52 -56 -107 -97 -210 -155 -118 -66 -146 -91 -139 -119
3 -11 -1 -43 -9 -69 -8 -27 -20 -90 -26 -139 -10 -84 -10 -92 7 -104 27 -20
53 -151 48 -243 -2 -41 -13 -120 -25 -175 -12 -55 -22 -120 -23 -145 -1 -40
-5 -47 -32 -61 -46 -23 -94 -65 -94 -83 0 -19 41 -21 104 -5 36 9 49 8 74 -5
17 -9 41 -16 53 -16 42 0 184 -54 232 -88 44 -32 54 -34 146 -39 l99 -6 86
131 c47 72 86 138 86 145 0 10 -12 14 -42 14 -111 -1 -229 16 -323 45 -55 18
-101 32 -102 33 -2 1 42 84 97 184 105 191 195 330 255 393 33 35 35 40 35
107 0 64 2 71 28 91 l27 22 -29 23 -29 23 54 11 c30 7 90 15 133 18 64 5 78 4
71 -7 -6 -10 -4 -12 8 -7 11 4 17 1 17 -8 0 -8 5 -15 11 -15 7 0 8 -14 4 -39
-5 -33 -4 -40 13 -45 18 -6 19 -10 7 -54 -33 -125 -34 -140 -29 -287 4 -82 6
-162 5 -177 -1 -15 10 -60 23 -100 13 -40 26 -99 29 -130 5 -51 3 -58 -14 -63
-11 -4 -19 -14 -17 -23 1 -9 0 -22 -4 -28 -4 -5 -10 -33 -13 -60 l-7 -50 71
-38 c50 -26 68 -41 64 -51 -3 -9 1 -15 10 -15 8 0 17 5 19 11 6 18 53 -1 103
-42 26 -21 57 -39 69 -39 13 0 42 20 70 49 62 63 116 89 152 73 34 -16 70 -15
98 3 21 14 25 14 50 -6 14 -11 33 -34 41 -50 11 -20 23 -29 41 -29 14 0 34 -5
46 -11 18 -10 19 -8 13 13 -10 36 -52 115 -80 152 -17 22 -38 36 -59 40 -18 3
-60 27 -94 52 -50 37 -75 48 -130 57 -40 7 -79 21 -95 34 -16 12 -33 23 -39
25 -12 4 -14 84 -9 248 1 42 -4 103 -13 139 -13 56 -13 72 -1 126 8 34 14 88
14 121 -1 33 4 78 11 101 10 34 18 42 44 47 18 4 32 2 34 -4 2 -5 15 -10 28
-10 14 0 38 -7 53 -15 56 -28 110 -35 141 -17 24 14 34 15 62 4 44 -16 57 -15
92 3 26 14 31 14 53 0 13 -9 31 -31 40 -50 13 -28 22 -34 57 -37 23 -3 42 -4
44 -3 15 11 -96 207 -115 204 -30 -5 -59 7 -110 46 -33 24 -82 52 -109 61 -27
9 -81 31 -121 50 -39 18 -95 41 -123 50 l-52 17 7 45 c7 44 -13 175 -25 170
-53 -24 -105 -75 -165 -165 l-68 -102 -31 16 c-43 23 -199 23 -242 1 -17 -9
-37 -24 -44 -33 -8 -9 -31 -25 -51 -36 -38 -19 -39 -19 -79 2 -36 19 -40 25
-40 60 0 52 30 109 77 148 49 40 92 48 132 25 30 -18 31 -18 46 1 23 30 13
124 -16 148 -33 27 -86 20 -159 -22z m-276 -658 c21 -3 41 -14 47 -24 5 -11
19 -19 31 -19 19 0 20 -1 4 -25 -10 -15 -14 -34 -10 -50 5 -20 2 -25 -20 -31
-21 -5 -35 -23 -62 -81 -37 -77 -51 -91 -34 -33 6 21 6 48 0 74 -5 23 -10 66
-10 96 0 30 -4 72 -9 93 -9 37 -8 38 9 22 9 -9 34 -19 54 -22z"/>
</g>
</svg>
